<svg width="102" height="51" viewBox="0 0 102 51" fill="none" xmlns="http://www.w3.org/2000/svg">
<path d="M102 10C102 4.47715 97.5228 0 92 0H25.5C11.4167 0 0 11.4167 0 25.5C0 39.5833 11.4167 51 25.5 51H92C97.5228 51 102 46.5228 102 41V10Z" fill="url(#paint0_linear)"/>
<path d="M101.5 10C101.5 4.75329 97.2467 0.5 92 0.5H25.5C11.6929 0.5 0.5 11.6929 0.5 25.5C0.5 39.3071 11.6929 50.5 25.5 50.5H92C97.2467 50.5 101.5 46.2467 101.5 41V10Z" stroke="url(#paint1_linear)" stroke-opacity="0.4"/>
<defs>
<linearGradient id="paint0_linear" x1="51" y1="0" x2="51" y2="51" gradientUnits="userSpaceOnUse">
<stop stop-color="#396D8C"/>
<stop offset="1" stop-color="#105077"/>
</linearGradient>
<linearGradient id="paint1_linear" x1="51" y1="0" x2="51" y2="51" gradientUnits="userSpaceOnUse">
<stop stop-color="white"/>
<stop offset="1" stop-color="#115D8B"/>
</linearGradient>
</defs>
</svg>
