<svg width="30" height="30" viewBox="0 0 30 30" fill="none" xmlns="http://www.w3.org/2000/svg">
<path fill-rule="evenodd" clip-rule="evenodd" d="M6.3872 3C5.06878 3 4 4.06878 4 5.3872V9.0003H10.7954H18.2039H24.9998V10.0003H18.9997V10.2046C18.9997 10.644 18.6434 11.0003 18.2039 11.0003H10.7954C10.3559 11.0003 9.99967 10.644 9.99967 10.2046V10.0003H4V24.6128C4 25.9312 5.06878 27 6.38719 27H22.6128C23.9312 27 25 25.9312 25 24.6128V5.38719C25 4.06878 23.9312 3 22.6128 3H6.3872ZM6.99992 5.79516C6.99992 5.35569 7.35618 4.99943 7.79566 4.99943H8.20419C8.64366 4.99943 8.99992 5.35569 8.99992 5.79516V6.2037C8.99992 6.64317 8.64366 6.99943 8.20419 6.99943H7.79566C7.35618 6.99943 6.99992 6.64317 6.99992 6.2037V5.79516ZM11.7957 4.99943C11.3562 4.99943 11 5.35569 11 5.79516V6.2037C11 6.64317 11.3562 6.99943 11.7957 6.99943H12.2042C12.6437 6.99943 13 6.64317 13 6.2037V5.79516C13 5.35569 12.6437 4.99943 12.2042 4.99943H11.7957Z" fill="white"/>
</svg>
