<svg width="16" height="23" viewBox="0 0 16 23" fill="none" xmlns="http://www.w3.org/2000/svg">
<path fill-rule="evenodd" clip-rule="evenodd" d="M15.6594 8.45273V12.437C15.6594 13.4748 15.7392 15.1507 15.8373 16.1812L15.9952 17.8405C16.045 18.3558 15.7026 18.7757 15.2322 18.7757H0.767771C0.299013 18.7757 -0.0450658 18.3576 0.00480565 17.8405L0.162714 16.1812C0.260784 15.1544 0.34057 13.4749 0.34057 12.437V8.45273C0.34057 3.78087 3.7697 0 8.00001 0C12.2303 0 15.6594 3.78444 15.6594 8.45273ZM5.02129 19.7143H10.9786C10.9786 21.5295 9.64555 23 7.99996 23C6.35437 23 5.02129 21.5295 5.02129 19.7143Z" fill="#FFFFFF"/>
</svg>
