<svg width="18" height="17" viewBox="0 0 18 17" fill="none" xmlns="http://www.w3.org/2000/svg">
<path d="M8.98711 0.186768C4.47037 0.186768 0.80957 3.84757 0.80957 8.3643C0.80957 12.881 4.47037 16.5418 8.98711 16.5418C13.5038 16.5418 17.1646 12.8802 17.1646 8.3643C17.1646 3.84837 13.5038 0.186768 8.98711 0.186768ZM12.6766 9.04242H8.81947C8.53727 9.04242 8.30887 8.81402 8.30887 8.53182V2.64069C8.30887 2.35848 8.53727 2.13008 8.82025 2.13008C9.10245 2.13008 9.33086 2.35848 9.33086 2.64069V8.02113L12.6767 8.02035C12.959 8.02035 13.1881 8.24875 13.1881 8.53174C13.1881 8.81394 12.959 9.04234 12.6767 9.04234L12.6766 9.04242Z" fill="#0D6497"/>
</svg>
