<svg width="12" height="15" viewBox="0 0 12 15" fill="none" xmlns="http://www.w3.org/2000/svg">
<path fill-rule="evenodd" clip-rule="evenodd" d="M0.45 0C0.201472 0 0 0.201471 0 0.45V14.55C0 14.7985 0.201471 15 0.45 15H4.79997V10.5C4.79997 10.4172 4.86713 10.35 4.94997 10.35H7.04997C7.13281 10.35 7.19997 10.4172 7.19997 10.5V15H11.55C11.7985 15 12 14.7985 12 14.55V0.45C12 0.201472 11.7985 0 11.55 0H0.45ZM1.95002 1.95007C1.86717 1.95007 1.80002 2.01723 1.80002 2.10007V4.35007C1.80002 4.43292 1.86717 4.50007 1.95002 4.50007H3.45002C3.53286 4.50007 3.60002 4.43292 3.60002 4.35007V2.10007C3.60002 2.01723 3.53286 1.95007 3.45002 1.95007H1.95002ZM5.10004 2.10007C5.10004 2.01723 5.16719 1.95007 5.25004 1.95007H6.75004C6.83288 1.95007 6.90003 2.01723 6.90003 2.10007V4.35007C6.90003 4.43292 6.83288 4.50007 6.75004 4.50007H5.25004C5.16719 4.50007 5.10004 4.43292 5.10004 4.35007V2.10007ZM8.55005 1.95007C8.46721 1.95007 8.40005 2.01723 8.40005 2.10007V4.35007C8.40005 4.43292 8.46721 4.50007 8.55005 4.50007H10.0501C10.1329 4.50007 10.2001 4.43292 10.2001 4.35007V2.10007C10.2001 2.01723 10.1329 1.95007 10.0501 1.95007H8.55005ZM1.80002 6.30006C1.80002 6.21721 1.86717 6.15005 1.95002 6.15005H3.45002C3.53286 6.15005 3.60002 6.21721 3.60002 6.30006V8.55005C3.60002 8.6329 3.53286 8.70006 3.45002 8.70006H1.95002C1.86717 8.70006 1.80002 8.6329 1.80002 8.55005V6.30006ZM5.25004 6.15005C5.16719 6.15005 5.10004 6.21721 5.10004 6.30006V8.55005C5.10004 8.6329 5.16719 8.70006 5.25004 8.70006H6.75004C6.83288 8.70006 6.90003 8.6329 6.90003 8.55005V6.30006C6.90003 6.21721 6.83288 6.15005 6.75004 6.15005H5.25004ZM8.40005 6.30006C8.40005 6.21721 8.46721 6.15005 8.55005 6.15005H10.0501C10.1329 6.15005 10.2001 6.21721 10.2001 6.30006V8.55005C10.2001 8.6329 10.1329 8.70006 10.0501 8.70006H8.55005C8.46721 8.70006 8.40005 8.6329 8.40005 8.55005V6.30006ZM1.95002 10.35C1.86717 10.35 1.80002 10.4172 1.80002 10.5V12.75C1.80002 12.8329 1.86717 12.9 1.95002 12.9H3.45002C3.53286 12.9 3.60002 12.8329 3.60002 12.75V10.5C3.60002 10.4172 3.53286 10.35 3.45002 10.35H1.95002ZM8.55005 10.35C8.46721 10.35 8.40005 10.4172 8.40005 10.5V12.75C8.40005 12.8329 8.46721 12.9 8.55005 12.9H10.0501C10.1329 12.9 10.2001 12.8329 10.2001 12.75V10.5C10.2001 10.4172 10.1329 10.35 10.0501 10.35H8.55005Z" fill="#FFFFFF"/>
</svg>
