<svg width="12" height="18" viewBox="0 0 12 18" fill="none" xmlns="http://www.w3.org/2000/svg">
<path fill-rule="evenodd" clip-rule="evenodd" d="M0.72 0C0.322355 0 0 0.322355 0 0.72V17.28C0 17.6776 0.322355 18 0.72 18H10.44C10.8376 18 11.16 17.6776 11.16 17.28V0.72C11.16 0.322355 10.8376 0 10.44 0H0.72ZM3.24 3.24C3.04118 3.24 2.88 3.40118 2.88 3.6V5.4C2.88 5.59882 3.04118 5.76 3.24 5.76H7.92C8.11882 5.76 8.28 5.59882 8.28 5.4V3.6C8.28 3.40118 8.11882 3.24 7.92 3.24H3.24ZM2.88 7.92C2.88 7.72118 3.04118 7.56 3.24 7.56H7.92C8.11882 7.56 8.28 7.72118 8.28 7.92V9.72C8.28 9.91882 8.11882 10.08 7.92 10.08H3.24C3.04118 10.08 2.88 9.91882 2.88 9.72V7.92ZM3.24 11.88C3.04118 11.88 2.88 12.0412 2.88 12.24V14.04C2.88 14.2388 3.04118 14.4 3.24 14.4H7.92C8.11882 14.4 8.28 14.2388 8.28 14.04V12.24C8.28 12.0412 8.11882 11.88 7.92 11.88H3.24Z" fill="#000000"/>
</svg>
