<svg width="19" height="25" viewBox="0 0 19 25" fill="none" xmlns="http://www.w3.org/2000/svg">
<path d="M0.967765 10.3175C1.31335 9.63203 1.72804 8.98268 2.21186 8.36941C3.17949 7.14286 4.2508 5.98846 5.25299 4.79798C6.53165 3.3189 9.15807 0.252526 9.22719 0.180376C9.33087 0.0721509 9.39998 8.3926e-07 9.4691 8.33218e-07C9.53822 8.27175e-07 9.60733 0.0721509 9.71101 0.180376C9.74557 0.252526 12.4066 3.3189 13.6852 4.79798C14.6874 5.98846 15.7587 7.14286 16.7263 8.36941C17.2102 8.98268 17.6249 9.63203 17.9704 10.3175C18.8344 12.0851 19.1454 14.0332 18.9381 16.1616C18.5925 19.3001 17.1065 21.7532 14.5492 23.4127C12.9249 24.4589 11.2316 25 9.53822 25C7.8103 25 6.15151 24.4949 4.52727 23.4127C1.96996 21.7532 0.483948 19.3001 0.138364 16.1616C-0.207219 14.0693 0.103809 12.0851 0.967765 10.3175ZM3.80154 15.7648C3.8361 15.9091 3.8361 16.0534 3.87066 16.1977C4.49271 18.8312 6.739 20.7792 9.43454 20.8153C12.1301 20.7792 14.3764 18.8312 14.9984 16.1977C15.033 16.0534 15.0675 15.9091 15.0675 15.7648C15.3094 13.7085 14.6183 11.9769 13.3742 10.4618C12.1301 8.98268 10.8514 7.53968 9.60733 6.06061C9.53822 5.98846 9.4691 5.95238 9.43454 5.95238C9.36543 5.95238 9.33087 5.98846 9.26175 6.06061C8.01765 7.53968 6.739 8.98268 5.4949 10.4618C4.2508 11.9769 3.55964 13.7085 3.80154 15.7648Z" fill="#30A0CC"/>
</svg>
