<svg width="18" height="18" viewBox="0 0 18 18" fill="none" xmlns="http://www.w3.org/2000/svg">
<path d="M17.3518 9.43124C17.6218 9.21539 17.6218 8.80124 17.3518 8.58539L16.02 7.45124C15.84 7.3071 15.7859 7.05539 15.8583 6.83953L16.4525 5.20124C16.5607 4.8771 16.3625 4.53539 16.0208 4.46296L14.2918 4.13951C14.0576 4.10365 13.8776 3.92366 13.8418 3.68951L13.5359 1.97951C13.4818 1.6378 13.1218 1.43951 12.7976 1.5478L11.16 2.14124C10.9442 2.21296 10.6917 2.15952 10.5483 1.97952L9.41418 0.647813C9.19832 0.377812 8.78418 0.377812 8.56832 0.647813L7.45176 1.97952C7.30762 2.15952 7.05591 2.21367 6.84005 2.14124L5.20176 1.5471C4.86005 1.43952 4.51832 1.6378 4.46418 1.97951L4.14003 3.7078C4.10417 3.94195 3.92418 4.12195 3.69003 4.1578L1.98003 4.46366C1.63832 4.5178 1.44003 4.8778 1.54832 5.20195L2.14246 6.84023C2.21418 7.05609 2.16075 7.30852 1.98075 7.45195L0.649033 8.58609C0.379033 8.80195 0.379033 9.21609 0.649033 9.43195L1.98075 10.5661C2.16075 10.7102 2.21489 10.9619 2.14246 11.1778L1.54832 12.8161C1.44004 13.1395 1.63832 13.4812 1.98003 13.5354L3.70832 13.8412C3.94246 13.8771 4.12246 14.0571 4.15832 14.2912L4.46418 16.0195C4.51832 16.3612 4.87832 16.5595 5.20246 16.4512L6.84075 15.8571C7.05661 15.7854 7.30904 15.8388 7.45246 16.0188L8.58661 17.3505C8.80246 17.6205 9.21661 17.6205 9.43246 17.3505L10.5666 16.0188C10.7107 15.8388 10.9625 15.7847 11.1783 15.8571L12.8166 16.4512C13.1408 16.5595 13.4825 16.3612 13.5549 16.0195L13.8608 14.2912C13.8966 14.0571 14.0766 13.8771 14.3108 13.8412L16.039 13.5354C16.3808 13.4812 16.579 13.1212 16.4708 12.7971L15.8583 11.1595C15.7866 10.9437 15.8401 10.6912 16.0201 10.5478L17.3518 9.43124ZM9.00011 13.4278C6.55175 13.4278 4.57175 11.4478 4.57175 8.99942C4.57175 6.55106 6.55175 4.57106 9.00011 4.57106C11.4485 4.57106 13.4285 6.55106 13.4285 8.99942C13.4285 11.4478 11.4485 13.4278 9.00011 13.4278Z" fill="#0A537F"/>
<path d="M10.9618 6.85748C10.8359 6.73162 10.6201 6.7492 10.4935 6.87576L8.5135 9.0174L7.50521 7.9374C7.37935 7.81154 7.18107 7.79326 7.03692 7.91912L6.31692 8.58497C6.19106 8.71083 6.17278 8.90912 6.29864 9.05326L8.26172 11.1591C8.38758 11.3032 8.60343 11.3032 8.74758 11.1591L11.6818 7.99072C11.8076 7.86486 11.79 7.64901 11.6635 7.52243L10.9618 6.85748Z" fill="#0A537F"/>
</svg>
