<svg width="16" height="16" viewBox="0 0 16 16" fill="none" xmlns="http://www.w3.org/2000/svg">
<path d="M4.73398 0.719727L2.40039 2.86606H3.73398C4.28627 2.86606 4.73398 2.41834 4.73398 1.86606V0.719727Z" fill="#0A537F"/>
<path d="M5.66662 0.533203V1.80041C5.66662 2.90498 4.77119 3.80041 3.66662 3.80041H2.39941V14.4666C2.39941 15.0189 2.84713 15.4666 3.39941 15.4666H12.5993C13.1515 15.4666 13.5992 15.0189 13.5993 14.4666L13.6 1.53326C13.6001 0.980953 13.1523 0.533203 12.6 0.533203H5.66662ZM11.2665 12.6657H4.7339V11.7321H11.2674L11.2665 12.6657ZM11.2665 10.333H4.7339V9.39941H11.2674L11.2665 10.333ZM11.2665 7.99944H4.7339V7.06582H11.2674L11.2665 7.99944Z" fill="#0A537F"/>
</svg>
