<svg width="30" height="30" viewBox="0 0 30 30" fill="none" xmlns="http://www.w3.org/2000/svg">
<path d="M16.2252 5.33789C18.7343 5.33789 20.8549 6.99818 21.5517 9.27973L27.9029 9.27968V12.8497H21.44C20.6515 14.9672 18.6181 16.4788 16.225 16.4788C13.834 16.4788 11.7996 14.9672 11.01 12.8497H8.77215C6.62621 12.8497 6.52996 16.9776 6.52996 17.0192H2.95996C2.95996 14.3426 4.17404 9.27968 8.7722 9.27968H10.8985C11.5055 7.29459 13.1909 5.78085 15.2723 5.421L16.2252 5.33789Z" fill="white"/>
<path d="M2.20557 24.4663C2.20557 25.8652 3.34088 26.9994 4.7387 26.9994C6.13761 26.9994 7.27074 25.8652 7.27074 24.4663C7.27074 23.0685 4.7387 19.7217 4.7387 19.7217C4.7387 19.7228 2.20557 23.0685 2.20557 24.4663Z" fill="white"/>
</svg>
