<svg width="18" height="21" viewBox="0 0 18 21" fill="none" xmlns="http://www.w3.org/2000/svg">
<path fill-rule="evenodd" clip-rule="evenodd" d="M17.9997 9.5984C17.9997 8.90094 17.5904 7.93395 17.0881 7.43928L9.91137 0.370977C9.40914 -0.123659 8.59051 -0.123659 8.08831 0.370977L0.911558 7.43928C0.409332 7.93392 0 8.90588 0 9.5984V19.7387C0 20.4361 0.57756 21 1.28068 21H5.99381C6.5461 21 6.99381 20.5523 6.99381 20V15.9541C6.99381 15.4018 7.44152 14.9541 7.99381 14.9541H10.0164C10.5687 14.9541 11.0164 15.4018 11.0164 15.9541V20C11.0164 20.5523 11.4641 21 12.0164 21H16.7193C17.4275 21 18 20.4312 18 19.7387L17.9997 9.5984Z" fill="#FEFEFF"/>
</svg>
