<svg width="31" height="31" viewBox="0 0 31 31" fill="none" xmlns="http://www.w3.org/2000/svg">
<path d="M22.685 22.8106V21.6797H21.5542C18.8485 21.6829 16.6565 23.8755 16.6528 26.5809V27.7119H17.7842C20.4893 27.7087 22.6818 25.516 22.685 22.8106Z" fill="white"/>
<path d="M13.5107 27.7119H14.642V26.5809C14.6388 23.8751 12.4464 21.6829 9.74118 21.6797H8.60986V22.8106C8.61353 25.516 10.8056 27.7087 13.5107 27.7119Z" fill="white"/>
<path d="M14.4942 23.2288L14.4946 23.2292L15.2946 24.0292L15.6475 24.382L16.0003 24.0292L16.8 23.2295L16.8005 23.2291C18.9058 21.1187 18.9056 17.7029 16.8007 15.593L16.8003 15.5926L16.0003 14.7926L15.6475 14.4398L15.2946 14.7926L14.4949 15.5923L14.4944 15.5928C12.3898 17.7031 12.3892 21.1188 14.4942 23.2288Z" fill="white" stroke="white" stroke-width="0.99807"/>
<rect x="4.58838" y="2.57812" width="22.118" height="3.01609" rx="1" fill="white"/>
<path d="M5.59375 10.8816C5.59375 11.8479 6.26978 12.6313 7.10212 12.6313C7.93511 12.6313 8.60984 11.8479 8.60984 10.8816C8.60984 9.91616 7.10212 7.60449 7.10212 7.60449C7.10212 7.60525 5.59375 9.9162 5.59375 10.8816Z" fill="white"/>
<path d="M10.6206 12.8924C10.6206 13.8586 11.2966 14.6421 12.129 14.6421C12.962 14.6421 13.6367 13.8586 13.6367 12.8924C13.6367 11.9269 12.129 9.61523 12.129 9.61523C12.129 9.61599 10.6206 11.9269 10.6206 12.8924Z" fill="white"/>
<path d="M17.6582 10.8816C17.6582 11.8479 18.3342 12.6313 19.1666 12.6313C19.9996 12.6313 20.6743 11.8479 20.6743 10.8816C20.6743 9.91616 19.1666 7.60449 19.1666 7.60449C19.1666 7.60525 17.6582 9.9162 17.6582 10.8816Z" fill="white"/>
<path d="M22.6851 12.8924C22.6851 13.8586 23.3611 14.6421 24.1934 14.6421C25.0264 14.6421 25.7011 13.8586 25.7011 12.8924C25.7011 11.9269 24.1934 9.61523 24.1934 9.61523C24.1934 9.61599 22.6851 11.9269 22.6851 12.8924Z" fill="white"/>
</svg>
