<svg width="20" height="20" viewBox="0 0 20 20" fill="none" xmlns="http://www.w3.org/2000/svg">
<path opacity="0.6" d="M16.4 17H6C5.12 17 4.4 16.2688 4.4 15.375V8.01375L2.184 5.3325C2.072 5.19437 2 5.0075 2 4.8125C2 4.36562 2.36 4 2.8 4H16.4C17.28 4 18 4.73125 18 5.625V15.375C18 16.2688 17.28 17 16.4 17ZM7.2 6.4375C6.976 6.4375 6.8 6.61625 6.8 6.84375V7.65625C6.8 7.88375 6.976 8.0625 7.2 8.0625H15.2C15.424 8.0625 15.6 7.88375 15.6 7.65625V6.84375C15.6 6.61625 15.424 6.4375 15.2 6.4375H7.2ZM7.2 9.6875C6.976 9.6875 6.8 9.86625 6.8 10.0938V10.9062C6.8 11.1337 6.976 11.3125 7.2 11.3125H15.2C15.424 11.3125 15.6 11.1337 15.6 10.9062V10.0938C15.6 9.86625 15.424 9.6875 15.2 9.6875H7.2ZM7.2 12.9375C6.976 12.9375 6.8 13.1163 6.8 13.3438V14.1562C6.8 14.3837 6.976 14.5625 7.2 14.5625H11.2C11.424 14.5625 11.6 14.3837 11.6 14.1562V13.3438C11.6 13.1163 11.424 12.9375 11.2 12.9375H7.2Z" fill="#9DBED1"/>
</svg>
