<svg width="32" height="32" viewBox="0 0 32 32" fill="none" xmlns="http://www.w3.org/2000/svg">
<path fill-rule="evenodd" clip-rule="evenodd" d="M4 9C4 6.79086 5.79086 5 8 5H24C26.2091 5 28 6.79086 28 9V20.5769C28 22.7861 26.2091 24.5769 24 24.5769H22.5H22.2869C20.3776 24.5769 18.5823 25.4856 17.4518 27.0242L16.8058 27.9033C16.4062 28.4471 15.5938 28.4471 15.1942 27.9033L14.5482 27.0242C13.4177 25.4856 11.6224 24.5769 9.71312 24.5769H9.5H8C5.79086 24.5769 4 22.7861 4 20.5769V9ZM9 17C9 16.4477 9.44772 16 10 16H19C19.5523 16 20 16.4477 20 17C20 17.5523 19.5523 18 19 18H10C9.44771 18 9 17.5523 9 17ZM10 11C9.44772 11 9 11.4477 9 12C9 12.5523 9.44772 13 10 13H22C22.5523 13 23 12.5523 23 12C23 11.4477 22.5523 11 22 11H10Z" fill="#FFFFFF"/>
</svg>
