<svg width="20" height="20" viewBox="0 0 20 20" fill="none" xmlns="http://www.w3.org/2000/svg">
<path opacity="0.6" d="M17 14.9524V15.7143H3V14.9524L4.55556 13.4286V8.85714C4.55556 6.49524 6.13444 4.41524 8.44444 3.74476C8.44444 3.66857 8.44444 3.6 8.44444 3.52381C8.44444 2.68571 9.14444 2 10 2C10.8556 2 11.5556 2.68571 11.5556 3.52381C11.5556 3.6 11.5556 3.66857 11.5556 3.74476C13.8656 4.41524 15.4444 6.49524 15.4444 8.85714V13.4286L17 14.9524ZM11.5556 16.4762C11.5556 17.3143 10.8556 18 10 18C9.14444 18 8.44444 17.3143 8.44444 16.4762" fill="#9DBED1"/>
</svg>
