<svg width="19" height="19" viewBox="0 0 19 19" fill="none" xmlns="http://www.w3.org/2000/svg">
<circle cx="9.5" cy="9.5" r="9" stroke="#0B6599"/>
<path d="M12.045 7.682C12.045 7.994 11.993 8.27133 11.889 8.514C11.785 8.75667 11.6507 8.97767 11.486 9.177C11.33 9.36767 11.1567 9.54533 10.966 9.71C10.784 9.87467 10.6107 10.048 10.446 10.23C10.082 10.646 9.9 11.1097 9.9 11.621H8.951C8.951 10.815 9.31067 10.0827 10.03 9.424C10.472 9.034 10.7623 8.709 10.901 8.449C11.0483 8.18033 11.122 7.93767 11.122 7.721C11.122 7.50433 11.096 7.31367 11.044 7.149C10.992 6.97567 10.901 6.81533 10.771 6.668C10.4763 6.34733 10.0387 6.187 9.458 6.187C8.86 6.187 8.37467 6.36467 8.002 6.72C7.65533 7.04933 7.46467 7.45667 7.43 7.942H6.507C6.54167 7.20533 6.81467 6.58567 7.326 6.083C7.872 5.55433 8.55667 5.29 9.38 5.29C10.264 5.29 10.94 5.53267 11.408 6.018C11.8327 6.46 12.045 7.01467 12.045 7.682ZM10.056 12.674V14H8.795V12.674H10.056Z" fill="#0B6599"/>
</svg>
