<svg width="31" height="31" viewBox="0 0 31 31" fill="none" xmlns="http://www.w3.org/2000/svg">
<path d="M8.78565 11.9793V10.6764H3.32666V4.55288H8.78565V3.25H11.4565V11.9793H8.78565Z" fill="white"/>
<path d="M27.0261 15.497V8.07064C27.0261 7.07173 26.6787 6.23574 25.9838 5.56261C25.2889 4.88947 24.4638 4.55288 23.5083 4.55288H15.9517V3.25H13.2808V11.9793H15.9517V10.6764H20.8374V15.497H19.4694V18.1028H28.3941V15.497H27.0261Z" fill="white"/>
<path d="M21.4234 25.8247C21.4234 27.5639 22.7755 28.9741 24.4402 28.9741C26.1061 28.9741 27.4556 27.5639 27.4556 25.8247C27.4556 24.0868 24.4402 19.9258 24.4402 19.9258C24.4402 19.9258 21.4234 24.0868 21.4234 25.8247Z" fill="white"/>
</svg>
