<svg width="20" height="20" viewBox="0 0 20 20" fill="none" xmlns="http://www.w3.org/2000/svg">
<path opacity="0.6" d="M5.81556 9.05889C6.93556 11.26 8.74 13.0644 10.9411 14.1844L12.6522 12.4733C12.87 12.2556 13.1733 12.1933 13.4456 12.2789C14.3167 12.5667 15.25 12.7222 16.2222 12.7222C16.65 12.7222 17 13.0722 17 13.5V16.2222C17 16.65 16.65 17 16.2222 17C8.91889 17 3 11.0811 3 3.77778C3 3.35 3.35 3 3.77778 3H6.5C6.92778 3 7.27778 3.35 7.27778 3.77778C7.27778 4.75 7.43333 5.68333 7.72111 6.55444C7.80667 6.82667 7.74444 7.13 7.52667 7.34778L5.81556 9.05889Z" fill="#9DBED1"/>
</svg>
