<svg width="30" height="30" viewBox="0 0 30 30" fill="none" xmlns="http://www.w3.org/2000/svg">
<g clip-path="url(#clip0)">
<path d="M25.3727 15.4682C23.8699 15.4682 22.4823 15.0347 21.4131 14.3414C21.1816 14.1675 20.9502 13.9948 20.7199 13.8209C20.6047 13.734 20.4308 13.734 20.3157 13.8209C20.1136 13.9948 19.8821 14.1969 19.6224 14.3414C18.5532 15.064 17.1656 15.4682 15.6628 15.4682C13.9286 15.4682 12.3683 14.8901 11.2402 13.9936C11.0663 13.8491 10.8936 13.7046 10.7197 13.5307C10.6045 13.4155 10.4013 13.4155 10.2568 13.5307C10.1122 13.7046 9.93836 13.8491 9.73626 13.9936C8.60946 14.9183 7.04793 15.4682 5.31362 15.4682C4.18682 15.4682 3.14581 15.2368 2.22116 14.8032C2.01906 14.7163 1.7876 14.8325 1.7876 15.0346V18.2623C1.7876 18.3492 1.84518 18.4362 1.93212 18.4937C2.9144 18.9849 4.07057 19.3033 5.31362 19.3033C7.33692 19.3033 9.10065 18.5513 10.2568 17.3669C10.372 17.2518 10.5752 17.2518 10.6904 17.3669C11.8466 18.5525 13.6103 19.3033 15.6336 19.3033C17.483 19.3033 19.1316 18.6676 20.2877 17.656C20.4029 17.569 20.5768 17.569 20.6919 17.656C21.8481 18.6676 23.4954 19.3033 25.3461 19.3033C26.7337 19.3033 28.0051 18.9567 29.0461 18.321C29.1331 18.2634 29.1906 18.1765 29.1906 18.0896V14.8913C29.1906 14.6892 28.931 14.5729 28.7277 14.6598C27.7714 15.1792 26.6145 15.4682 25.3727 15.4682Z" fill="white"/>
<path d="M21.1719 20.2272C20.9404 20.0533 20.709 19.8805 20.4786 19.7067C20.3635 19.6197 20.1896 19.6197 20.0745 19.7067C19.8723 19.8805 19.6409 20.0826 19.3812 20.2272C18.312 20.9498 16.9244 21.354 15.4216 21.354C13.6874 21.354 12.1271 20.7759 10.999 19.8794C10.8251 19.7349 10.6524 19.5903 10.4785 19.4165C10.3633 19.3013 10.1601 19.3013 10.0156 19.4165C9.87103 19.5903 9.69714 19.7349 9.49505 19.8794C8.36824 20.8041 6.80672 21.354 5.07241 21.354C3.94561 21.354 2.9046 21.1225 1.97995 20.6889C1.77785 20.602 1.54639 20.7183 1.54639 20.9204V25.9492C1.54639 26.0937 1.69091 26.2088 1.83543 26.2088H28.6293C28.8032 26.2088 28.9184 26.0937 28.9184 25.9492V20.7747C28.9184 20.5726 28.6587 20.4563 28.4555 20.5433C27.4732 21.0344 26.317 21.3528 25.074 21.3528C23.6287 21.3539 22.2705 20.9497 21.1719 20.2271V20.2272Z" fill="white"/>
<path fill-rule="evenodd" clip-rule="evenodd" d="M7.32715 5.73657C7.32715 5.07143 7.86635 4.53223 8.53149 4.53223C9.7769 4.53223 10.7652 4.95233 11.4037 5.76108C12.0003 6.51682 12.1445 7.43038 12.1445 8.14525V14.8896C12.1445 15.5547 11.6053 16.0939 10.9402 16.0939C10.275 16.0939 9.73583 15.5547 9.73583 14.8896V8.14525C9.73583 7.70396 9.63915 7.41318 9.51317 7.25361C9.42905 7.14706 9.21304 6.94091 8.53149 6.94091C7.86635 6.94091 7.32715 6.40171 7.32715 5.73657Z" fill="white"/>
<path fill-rule="evenodd" clip-rule="evenodd" d="M15.9985 5.73657C15.9985 5.07143 16.5377 4.53223 17.2029 4.53223C18.4483 4.53223 19.4366 4.95233 20.0751 5.76108C20.6717 6.51682 20.8159 7.43038 20.8159 8.14525V14.8896C20.8159 15.5547 20.2767 16.0939 19.6116 16.0939C18.9464 16.0939 18.4072 15.5547 18.4072 14.8896V8.14525C18.4072 7.70396 18.3105 7.41318 18.1846 7.25361C18.1004 7.14706 17.8844 6.94091 17.2029 6.94091C16.5377 6.94091 15.9985 6.40171 15.9985 5.73657Z" fill="white"/>
<path fill-rule="evenodd" clip-rule="evenodd" d="M10.6992 11.5178C10.6992 10.8527 11.2384 10.3135 11.9036 10.3135H19.6114C20.2765 10.3135 20.8157 10.8527 20.8157 11.5178C20.8157 12.183 20.2765 12.7222 19.6114 12.7222H11.9036C11.2384 12.7222 10.6992 12.183 10.6992 11.5178Z" fill="white"/>
</g>
<defs>
<clipPath id="clip0">
<rect width="28.9042" height="28.9042" fill="white" transform="translate(0.82373 0.918945)"/>
</clipPath>
</defs>
</svg>
