<svg width="28" height="28" viewBox="0 0 28 28" fill="none" xmlns="http://www.w3.org/2000/svg">
<mask id="path-1-inside-1" fill="black">
<rect x="3" y="3" width="8.68421" height="8.68421" rx="0.578947"/>
</mask>
<rect x="3" y="3" width="8.68421" height="8.68421" rx="0.578947" stroke="#0B6092" stroke-width="1.531" mask="url(#path-1-inside-1)"/>
<path d="M27 4.25V1.57895C27 1.2592 26.7408 1 26.4211 1H23.75M4.25 1H1.57895C1.2592 1 1 1.2592 1 1.57895V4.25M1 23.75V26.4211C1 26.7408 1.2592 27 1.57895 27H4.25M23.75 27H26.4211C26.7408 27 27 26.7408 27 26.4211V23.75" stroke="#0B6092" stroke-width="1.53"/>
<mask id="path-3-inside-2" fill="white">
<rect x="16.3159" y="3" width="8.68421" height="8.68421" rx="0.578947"/>
</mask>
<rect x="16.3159" y="3" width="8.68421" height="8.68421" rx="0.578947" stroke="#0B6092" stroke-width="1.531" mask="url(#path-3-inside-2)"/>
<mask id="path-4-inside-3" fill="white">
<rect x="3" y="16.3154" width="8.68421" height="8.68421" rx="0.578947"/>
</mask>
<rect x="3" y="16.3154" width="8.68421" height="8.68421" rx="0.578947" stroke="#0B6092" stroke-width="1.531" mask="url(#path-4-inside-3)"/>
<mask id="path-5-inside-4" fill="white">
<rect x="16.3159" y="16.3154" width="8.68421" height="8.68421" rx="0.578947"/>
</mask>
<rect x="16.3159" y="16.3154" width="8.68421" height="8.68421" rx="0.578947" stroke="#0B6092" stroke-width="1.531" mask="url(#path-5-inside-4)"/>
<path d="M14 6.47363V13.9999H3" stroke="#0B6092" stroke-width="1.53" stroke-linejoin="round"/>
<path d="M14 16.3154V24.9996" stroke="#0B6092" stroke-width="1.53" stroke-linejoin="round"/>
<path d="M21.5264 14H25.0001" stroke="#0B6092" stroke-width="1.53" stroke-linejoin="round"/>
<path d="M16.3159 14H19.7896" stroke="#0B6092" stroke-width="1.53" stroke-linejoin="round"/>
<path d="M14 3V5.31579" stroke="#0B6092" stroke-width="1.53" stroke-linejoin="round"/>
</svg>
