<svg width="31" height="31" viewBox="0 0 31 31" fill="none" xmlns="http://www.w3.org/2000/svg">
<path d="M8.1471 22.5009C8.1471 23.898 7.06742 24.1712 6.4671 24.1712C5.86679 24.1712 4.78711 23.8851 4.78711 22.4858C4.78711 21.0865 6.4671 19.1582 6.4671 19.1582C6.4671 19.1571 8.1471 21.0995 8.1471 22.501V22.5009Z" fill="white"/>
<path d="M13.7212 22.5009C13.7212 23.898 12.6415 24.1712 12.0412 24.1712C11.4409 24.1712 10.3623 23.8851 10.3623 22.4858C10.3623 21.0865 12.0412 19.1582 12.0412 19.1582C12.0412 19.1571 13.7212 21.0995 13.7212 22.501V22.5009Z" fill="white"/>
<path d="M19.295 22.5009C19.295 23.898 18.2154 24.1712 17.6151 24.1712C17.0147 24.1712 15.9351 23.8851 15.9351 22.4858C15.9351 21.0865 17.6151 19.1582 17.6151 19.1582C17.6151 19.1571 19.295 21.0995 19.295 22.501V22.5009Z" fill="white"/>
<path d="M5.39025 13.1602C3.34282 15.7194 4.15235 17.6392 12.0439 17.6392C19.9355 17.6392 20.234 15.2076 18.6984 13.1602H5.39025Z" fill="white"/>
<path d="M21.7176 2.77807C18.7667 1.10131 11.6699 0.977154 10.2005 7.51034H9.44688C8.92432 7.50926 8.50214 7.86231 8.5043 8.29961L8.50214 8.79412C8.50214 8.85242 8.52805 8.90856 8.54532 8.96363C6.70878 9.60388 5.36035 10.4965 5.36035 13.2216H18.7227C18.7249 10.4964 17.3752 9.6082 15.5377 8.9722C15.555 8.91389 15.582 8.85559 15.582 8.79189L15.5798 8.29956C15.582 7.86337 15.1577 7.51138 14.6373 7.51138H14.3317C14.9374 5.3196 18.1452 4.91365 19.9299 5.9253C22.221 7.2274 23.4842 9.87591 23.4842 13.3848V27.7049C23.4842 28.2059 23.8556 28.6097 24.3134 28.6097H26.2763C26.733 28.6097 27.1033 28.2059 27.1033 27.7049V13.3848C27.1044 6.81587 23.7301 3.91934 21.7176 2.77807Z" fill="white"/>
</svg>
