<svg width="17" height="19" viewBox="0 0 17 19" fill="none" xmlns="http://www.w3.org/2000/svg">
<path d="M11.8917 6.96191H15.7138V6.96195C16.2148 6.96218 16.6204 7.36788 16.6204 7.86901C16.6204 8.368 16.2152 8.77604 15.7134 8.77608C15.7134 8.77608 15.7134 8.77608 15.7134 8.77608L9.70146 8.77777H9.70137C9.58397 8.77777 9.46606 8.75531 9.35507 8.7099L9.35349 8.70926C9.13123 8.61685 8.95428 8.44117 8.8627 8.21833C8.7696 7.9959 8.76979 7.74401 8.86327 7.52169L8.86439 7.51903L8.8644 7.51903C8.90954 7.41449 8.97355 7.31423 9.05916 7.2286C9.05918 7.22858 9.0592 7.22856 9.05922 7.22853L13.5207 2.76436H9.70004C9.1988 2.76436 8.79297 2.35857 8.79297 1.85729C8.79297 1.3583 9.19818 0.950267 9.69996 0.950222C9.69998 0.950222 9.70001 0.950222 9.70004 0.950222L15.7119 0.948535H15.712C15.8336 0.948535 15.9513 0.974318 16.0583 1.01809L16.061 1.01919L16.061 1.01921C16.2795 1.11107 16.4586 1.28565 16.5507 1.5096C16.6436 1.73161 16.6436 1.98298 16.5507 2.205M11.8917 6.96191L16.2736 2.09002M11.8917 6.96191L16.3528 2.50084M11.8917 6.96191L16.3528 2.50084M16.5507 2.205C16.5505 2.20543 16.5503 2.20586 16.5501 2.2063L16.2736 2.09002M16.5507 2.205C16.5509 2.20453 16.551 2.20407 16.5512 2.20361L16.2736 2.09002M16.5507 2.205C16.5064 2.31264 16.4411 2.41456 16.3528 2.50084M16.2736 2.09002C16.2432 2.16422 16.1994 2.23167 16.142 2.28733L16.3542 2.49946L16.3528 2.50084M13.8205 2.46436H14.2446L13.9448 2.76436L13.8205 2.46436ZM4.04662 9.99734L7.35917 6.68479L7.3592 6.68481L7.36231 6.6816C7.44386 6.59759 7.50843 6.50054 7.55495 6.39036L7.55513 6.38994C7.6486 6.16763 7.64879 5.91741 7.55569 5.69499C7.4649 5.47407 7.28867 5.29474 7.06278 5.20319C6.95195 5.15794 6.83423 5.13555 6.71702 5.13555H1.85511C1.35384 5.13555 0.948047 5.54138 0.948047 6.04262C0.948047 6.54444 1.3561 6.94969 1.85511 6.94969H4.52719L1.21464 10.2622L1.21462 10.2622L1.2115 10.2654C1.12995 10.3494 1.06538 10.4465 1.01886 10.5567L1.01869 10.5571C0.925552 10.7786 0.924689 11.0288 1.01813 11.2504C1.10971 11.4749 1.28668 11.6506 1.50891 11.743L1.51049 11.7436C1.62148 11.789 1.73938 11.8115 1.85679 11.8115H6.72043C7.22224 11.8115 7.62749 11.4034 7.6275 10.9044L7.62749 10.9029C7.62497 10.4048 7.21858 9.99734 6.7187 9.99734H4.04662ZM7.11834 14.3108H8.35196L6.47622 16.1866C6.39058 16.2722 6.32655 16.3725 6.2814 16.4771L6.28139 16.4771L6.28027 16.4797C6.1866 16.7025 6.1866 16.9533 6.28027 17.176C6.37307 17.3968 6.54866 17.5723 6.76938 17.6652L6.77207 17.6663C6.87908 17.71 6.9968 17.7358 7.11837 17.7358H10.5434C11.0452 17.7358 11.4504 17.3278 11.4504 16.8287C11.4504 16.3275 11.0446 15.9217 10.5434 15.9217H9.30976L11.1855 14.0459L10.9734 13.8338L11.1855 14.0459C11.2732 13.9582 11.3354 13.8594 11.3803 13.7554L11.3814 13.7528C11.4749 13.5305 11.4751 13.2803 11.382 13.0578C11.2906 12.8355 11.1143 12.6601 10.8927 12.5675C10.7794 12.5197 10.6621 12.4967 10.5433 12.4967H7.11834C6.61652 12.4967 6.21127 12.9048 6.21127 13.4038C6.21127 13.9056 6.61932 14.3108 7.11834 14.3108Z" fill="#0D6497" stroke="#0D6497" stroke-width="0.6"/>
</svg>
