<svg width="20" height="20" viewBox="0 0 20 20" fill="none" xmlns="http://www.w3.org/2000/svg">
<path opacity="0.4" d="M15.759 9.22799C14.199 7.66798 12.1229 6.80365 9.90509 6.80365C7.68733 6.80365 5.61102 7.66749 4.05114 9.22799C3.68998 9.58914 3.68998 10.1563 4.05114 10.5175C4.23146 10.6978 4.46367 10.7885 4.69588 10.7885C4.92809 10.7885 5.16029 10.6983 5.34061 10.5175C6.55251 9.29246 8.17746 8.62207 9.90509 8.62207C11.6327 8.62207 13.2577 9.29249 14.4696 10.5175C14.8307 10.8786 15.3979 10.8786 15.759 10.5175C16.1202 10.1563 16.1202 9.57604 15.759 9.22799Z" fill="white"/>
<path d="M6.47472 11.6652C6.11357 12.0264 6.11357 12.5935 6.47472 12.9547C6.65504 13.135 6.88725 13.2257 7.11946 13.2257C7.35167 13.2257 7.58388 13.1355 7.7642 12.9547C8.95041 11.7685 10.8721 11.7685 12.0451 12.9416C12.3932 13.3027 12.9734 13.3027 13.3346 12.9416C13.6957 12.5804 13.6957 12.0133 13.3346 11.6521C11.4392 9.76922 8.37064 9.76922 6.47472 11.6652Z" fill="white"/>
<path d="M11.3366 15.0824C11.3366 15.8656 10.7014 16.5008 9.91818 16.5008C9.13442 16.5008 8.49976 15.8656 8.49976 15.0824C8.49976 14.2986 9.13442 13.6639 9.91818 13.6639C10.7014 13.6639 11.3366 14.2986 11.3366 15.0824Z" fill="white"/>
<path opacity="0.4" fill-rule="evenodd" clip-rule="evenodd" d="M1.84397 8.19639C1.51593 7.86835 1.51593 7.33649 1.84397 7.00844C6.29598 2.55643 13.5141 2.55643 17.9661 7.00844C18.2942 7.33649 18.2942 7.86835 17.9661 8.19639C17.6381 8.52443 17.1062 8.52443 16.7782 8.19639C12.9823 4.40047 6.82785 4.40047 3.03192 8.19639C2.70388 8.52443 2.17202 8.52443 1.84397 8.19639Z" fill="white"/>
</svg>
