<svg width="375" height="51" viewBox="0 0 375 51" fill="none" xmlns="http://www.w3.org/2000/svg">
<g filter="url(#filter0_b)">
<path d="M0 8H375V43H0V8Z" fill="url(#paint0_linear)" fill-opacity="0.7"/>
</g>
<mask id="mask0" mask-type="alpha" maskUnits="userSpaceOnUse" x="0" y="8" width="375" height="35">
<path d="M0 8H375V43H0V8Z" fill="url(#paint1_linear)" fill-opacity="0.7"/>
</mask>
<g mask="url(#mask0)">
<g opacity="0.5" filter="url(#filter1_f)">
<path d="M-7 19L-1 26L-7 33" stroke="white" stroke-width="2" stroke-linecap="round" stroke-linejoin="round"/>
</g>
<g opacity="0.5" filter="url(#filter2_f)">
<path d="M22 19L28 26L22 33" stroke="white" stroke-width="2" stroke-linecap="round" stroke-linejoin="round"/>
</g>
<g opacity="0.5" filter="url(#filter3_f)">
<path d="M51 19L57 26L51 33" stroke="white" stroke-width="2" stroke-linecap="round" stroke-linejoin="round"/>
</g>
<g opacity="0.5" filter="url(#filter4_f)">
<path d="M80 19L86 26L80 33" stroke="white" stroke-width="2" stroke-linecap="round" stroke-linejoin="round"/>
</g>
<g opacity="0.5" filter="url(#filter5_f)">
<path d="M109 19L115 26L109 33" stroke="white" stroke-width="2" stroke-linecap="round" stroke-linejoin="round"/>
</g>
<g opacity="0.5" filter="url(#filter6_f)">
<path d="M138 19L144 26L138 33" stroke="white" stroke-width="2" stroke-linecap="round" stroke-linejoin="round"/>
</g>
<g opacity="0.5" filter="url(#filter7_f)">
<path d="M167 19L173 26L167 33" stroke="white" stroke-width="2" stroke-linecap="round" stroke-linejoin="round"/>
</g>
<g opacity="0.5" filter="url(#filter8_f)">
<path d="M196 19L202 26L196 33" stroke="white" stroke-width="2" stroke-linecap="round" stroke-linejoin="round"/>
</g>
<g opacity="0.5" filter="url(#filter9_f)">
<path d="M225 19L231 26L225 33" stroke="white" stroke-width="2" stroke-linecap="round" stroke-linejoin="round"/>
</g>
<g opacity="0.5" filter="url(#filter10_f)">
<path d="M254 19L260 26L254 33" stroke="white" stroke-width="2" stroke-linecap="round" stroke-linejoin="round"/>
</g>
<g opacity="0.5" filter="url(#filter11_f)">
<path d="M283 19L289 26L283 33" stroke="white" stroke-width="2" stroke-linecap="round" stroke-linejoin="round"/>
</g>
<g opacity="0.5" filter="url(#filter12_f)">
<path d="M312 19L318 26L312 33" stroke="white" stroke-width="2" stroke-linecap="round" stroke-linejoin="round"/>
</g>
<g opacity="0.5" filter="url(#filter13_f)">
<path d="M341 19L347 26L341 33" stroke="white" stroke-width="2" stroke-linecap="round" stroke-linejoin="round"/>
</g>
<g opacity="0.5" filter="url(#filter14_f)">
<path d="M370 19L376 26L370 33" stroke="white" stroke-width="2" stroke-linecap="round" stroke-linejoin="round"/>
</g>
</g>
<path d="M238 10C238 4.47715 233.523 0 228 0H161.5C147.417 0 136 11.4167 136 25.5C136 39.5833 147.417 51 161.5 51H228C233.523 51 238 46.5228 238 41V10Z" fill="url(#paint2_linear)"/>
<path d="M237.5 10C237.5 4.75329 233.247 0.5 228 0.5H161.5C147.693 0.5 136.5 11.6929 136.5 25.5C136.5 39.3071 147.693 50.5 161.5 50.5H228C233.247 50.5 237.5 46.2467 237.5 41V10Z" stroke="url(#paint3_linear)" stroke-opacity="0.4"/>
<mask id="mask1" mask-type="alpha" maskUnits="userSpaceOnUse" x="143" y="6" width="38" height="39">
<rect x="143" y="44.5" width="38" height="38" rx="19" transform="rotate(-90 143 44.5)" fill="url(#paint4_linear)"/>
</mask>
<g mask="url(#mask1)">
<rect x="143" y="6.5" width="38" height="38" fill="url(#paint5_linear)"/>
<rect x="143.75" y="7.25" width="36.5" height="36.5" stroke="#4EB028" stroke-opacity="0.3" stroke-width="1.5"/>
<g opacity="0.4" filter="url(#filter15_d)">
<rect x="141.593" y="32.5781" width="14.7778" height="40.8148" transform="rotate(-90 141.593 32.5781)" fill="white"/>
</g>
</g>
<path d="M200.25 18.26C202.421 18.26 204.203 18.986 205.596 20.438C206.96 21.846 207.642 23.606 207.642 25.718C207.642 27.83 206.96 29.59 205.596 30.998C204.203 32.45 202.421 33.176 200.25 33.176C198.079 33.176 196.297 32.45 194.904 30.998C193.54 29.59 192.858 27.83 192.858 25.718C192.858 23.606 193.54 21.846 194.904 20.438C196.297 18.986 198.079 18.26 200.25 18.26ZM200.25 31.57C201.981 31.57 203.381 31.0053 204.452 29.876C205.479 28.7907 205.992 27.4047 205.992 25.718C205.992 24.0313 205.479 22.6453 204.452 21.56C203.381 20.4307 201.981 19.866 200.25 19.866C198.519 19.866 197.119 20.4307 196.048 21.56C195.021 22.6453 194.508 24.0313 194.508 25.718C194.508 27.4047 195.021 28.7907 196.048 29.876C197.119 31.0053 198.519 31.57 200.25 31.57ZM222.844 18.436V33H220.93L211.932 20.702V33H210.282V18.436H212.196L221.194 30.69V18.436H222.844Z" fill="#5AC930"/>
<defs>
<filter id="filter0_b" x="-20" y="-12" width="415" height="75" filterUnits="userSpaceOnUse" color-interpolation-filters="sRGB">
<feFlood flood-opacity="0" result="BackgroundImageFix"/>
<feGaussianBlur in="BackgroundImage" stdDeviation="10"/>
<feComposite in2="SourceAlpha" operator="in" result="effect1_backgroundBlur"/>
<feBlend mode="normal" in="SourceGraphic" in2="effect1_backgroundBlur" result="shape"/>
</filter>
<filter id="filter1_f" x="-12" y="14" width="16" height="24" filterUnits="userSpaceOnUse" color-interpolation-filters="sRGB">
<feFlood flood-opacity="0" result="BackgroundImageFix"/>
<feBlend mode="normal" in="SourceGraphic" in2="BackgroundImageFix" result="shape"/>
<feGaussianBlur stdDeviation="2" result="effect1_foregroundBlur"/>
</filter>
<filter id="filter2_f" x="17" y="14" width="16" height="24" filterUnits="userSpaceOnUse" color-interpolation-filters="sRGB">
<feFlood flood-opacity="0" result="BackgroundImageFix"/>
<feBlend mode="normal" in="SourceGraphic" in2="BackgroundImageFix" result="shape"/>
<feGaussianBlur stdDeviation="2" result="effect1_foregroundBlur"/>
</filter>
<filter id="filter3_f" x="46" y="14" width="16" height="24" filterUnits="userSpaceOnUse" color-interpolation-filters="sRGB">
<feFlood flood-opacity="0" result="BackgroundImageFix"/>
<feBlend mode="normal" in="SourceGraphic" in2="BackgroundImageFix" result="shape"/>
<feGaussianBlur stdDeviation="2" result="effect1_foregroundBlur"/>
</filter>
<filter id="filter4_f" x="75" y="14" width="16" height="24" filterUnits="userSpaceOnUse" color-interpolation-filters="sRGB">
<feFlood flood-opacity="0" result="BackgroundImageFix"/>
<feBlend mode="normal" in="SourceGraphic" in2="BackgroundImageFix" result="shape"/>
<feGaussianBlur stdDeviation="2" result="effect1_foregroundBlur"/>
</filter>
<filter id="filter5_f" x="104" y="14" width="16" height="24" filterUnits="userSpaceOnUse" color-interpolation-filters="sRGB">
<feFlood flood-opacity="0" result="BackgroundImageFix"/>
<feBlend mode="normal" in="SourceGraphic" in2="BackgroundImageFix" result="shape"/>
<feGaussianBlur stdDeviation="2" result="effect1_foregroundBlur"/>
</filter>
<filter id="filter6_f" x="133" y="14" width="16" height="24" filterUnits="userSpaceOnUse" color-interpolation-filters="sRGB">
<feFlood flood-opacity="0" result="BackgroundImageFix"/>
<feBlend mode="normal" in="SourceGraphic" in2="BackgroundImageFix" result="shape"/>
<feGaussianBlur stdDeviation="2" result="effect1_foregroundBlur"/>
</filter>
<filter id="filter7_f" x="162" y="14" width="16" height="24" filterUnits="userSpaceOnUse" color-interpolation-filters="sRGB">
<feFlood flood-opacity="0" result="BackgroundImageFix"/>
<feBlend mode="normal" in="SourceGraphic" in2="BackgroundImageFix" result="shape"/>
<feGaussianBlur stdDeviation="2" result="effect1_foregroundBlur"/>
</filter>
<filter id="filter8_f" x="191" y="14" width="16" height="24" filterUnits="userSpaceOnUse" color-interpolation-filters="sRGB">
<feFlood flood-opacity="0" result="BackgroundImageFix"/>
<feBlend mode="normal" in="SourceGraphic" in2="BackgroundImageFix" result="shape"/>
<feGaussianBlur stdDeviation="2" result="effect1_foregroundBlur"/>
</filter>
<filter id="filter9_f" x="220" y="14" width="16" height="24" filterUnits="userSpaceOnUse" color-interpolation-filters="sRGB">
<feFlood flood-opacity="0" result="BackgroundImageFix"/>
<feBlend mode="normal" in="SourceGraphic" in2="BackgroundImageFix" result="shape"/>
<feGaussianBlur stdDeviation="2" result="effect1_foregroundBlur"/>
</filter>
<filter id="filter10_f" x="249" y="14" width="16" height="24" filterUnits="userSpaceOnUse" color-interpolation-filters="sRGB">
<feFlood flood-opacity="0" result="BackgroundImageFix"/>
<feBlend mode="normal" in="SourceGraphic" in2="BackgroundImageFix" result="shape"/>
<feGaussianBlur stdDeviation="2" result="effect1_foregroundBlur"/>
</filter>
<filter id="filter11_f" x="278" y="14" width="16" height="24" filterUnits="userSpaceOnUse" color-interpolation-filters="sRGB">
<feFlood flood-opacity="0" result="BackgroundImageFix"/>
<feBlend mode="normal" in="SourceGraphic" in2="BackgroundImageFix" result="shape"/>
<feGaussianBlur stdDeviation="2" result="effect1_foregroundBlur"/>
</filter>
<filter id="filter12_f" x="307" y="14" width="16" height="24" filterUnits="userSpaceOnUse" color-interpolation-filters="sRGB">
<feFlood flood-opacity="0" result="BackgroundImageFix"/>
<feBlend mode="normal" in="SourceGraphic" in2="BackgroundImageFix" result="shape"/>
<feGaussianBlur stdDeviation="2" result="effect1_foregroundBlur"/>
</filter>
<filter id="filter13_f" x="336" y="14" width="16" height="24" filterUnits="userSpaceOnUse" color-interpolation-filters="sRGB">
<feFlood flood-opacity="0" result="BackgroundImageFix"/>
<feBlend mode="normal" in="SourceGraphic" in2="BackgroundImageFix" result="shape"/>
<feGaussianBlur stdDeviation="2" result="effect1_foregroundBlur"/>
</filter>
<filter id="filter14_f" x="365" y="14" width="16" height="24" filterUnits="userSpaceOnUse" color-interpolation-filters="sRGB">
<feFlood flood-opacity="0" result="BackgroundImageFix"/>
<feBlend mode="normal" in="SourceGraphic" in2="BackgroundImageFix" result="shape"/>
<feGaussianBlur stdDeviation="2" result="effect1_foregroundBlur"/>
</filter>
<filter id="filter15_d" x="137.593" y="17.8003" width="48.8148" height="22.7778" filterUnits="userSpaceOnUse" color-interpolation-filters="sRGB">
<feFlood flood-opacity="0" result="BackgroundImageFix"/>
<feColorMatrix in="SourceAlpha" type="matrix" values="0 0 0 0 0 0 0 0 0 0 0 0 0 0 0 0 0 0 127 0"/>
<feOffset dy="4"/>
<feGaussianBlur stdDeviation="2"/>
<feColorMatrix type="matrix" values="0 0 0 0 0 0 0 0 0 0 0 0 0 0 0 0 0 0 0.2 0"/>
<feBlend mode="normal" in2="BackgroundImageFix" result="effect1_dropShadow"/>
<feBlend mode="normal" in="SourceGraphic" in2="effect1_dropShadow" result="shape"/>
</filter>
<linearGradient id="paint0_linear" x1="187.5" y1="8" x2="187.5" y2="43" gradientUnits="userSpaceOnUse">
<stop stop-color="#9BEAF2"/>
<stop offset="0.0625" stop-color="#20A2CD"/>
<stop offset="0.135417" stop-color="#1F71A0"/>
<stop offset="0.213542" stop-color="#17699A"/>
<stop offset="0.3125" stop-color="#0C5F92"/>
<stop offset="0.786458" stop-color="#43D3F3"/>
<stop offset="1" stop-color="#43E4F3"/>
</linearGradient>
<linearGradient id="paint1_linear" x1="187.5" y1="8" x2="187.5" y2="43" gradientUnits="userSpaceOnUse">
<stop stop-color="#9BEAF2"/>
<stop offset="0.0625" stop-color="#20A2CD"/>
<stop offset="0.135417" stop-color="#1F71A0"/>
<stop offset="0.213542" stop-color="#17699A"/>
<stop offset="0.3125" stop-color="#0C5F92"/>
<stop offset="0.786458" stop-color="#43D3F3"/>
<stop offset="1" stop-color="#43E4F3"/>
</linearGradient>
<linearGradient id="paint2_linear" x1="187" y1="0" x2="187" y2="51" gradientUnits="userSpaceOnUse">
<stop stop-color="#396D8C"/>
<stop offset="1" stop-color="#105077"/>
</linearGradient>
<linearGradient id="paint3_linear" x1="187" y1="0" x2="187" y2="51" gradientUnits="userSpaceOnUse">
<stop stop-color="white"/>
<stop offset="1" stop-color="#115D8B"/>
</linearGradient>
<linearGradient id="paint4_linear" x1="162" y1="44.5" x2="162" y2="82.5" gradientUnits="userSpaceOnUse">
<stop stop-color="#E9F0F7"/>
<stop offset="1" stop-color="#AFE5F1"/>
</linearGradient>
<linearGradient id="paint5_linear" x1="162" y1="6.5" x2="162" y2="44.5" gradientUnits="userSpaceOnUse">
<stop stop-color="#70D549"/>
<stop offset="1" stop-color="#57C82B"/>
</linearGradient>
</defs>
</svg>
