<svg width="18" height="19" viewBox="0 0 18 19" fill="none" xmlns="http://www.w3.org/2000/svg">
<path d="M14.759 9.22799C13.199 7.66798 11.1229 6.80365 8.90509 6.80365C6.68733 6.80365 4.61102 7.66749 3.05114 9.22799C2.68998 9.58914 2.68998 10.1563 3.05114 10.5175C3.23146 10.6978 3.46367 10.7885 3.69588 10.7885C3.92809 10.7885 4.16029 10.6983 4.34061 10.5175C5.55251 9.29246 7.17746 8.62207 8.90509 8.62207C10.6327 8.62207 12.2577 9.29249 13.4696 10.5175C13.8307 10.8786 14.3979 10.8786 14.759 10.5175C15.1202 10.1563 15.1202 9.57604 14.759 9.22799Z" fill="white"/>
<path d="M5.47472 11.6652C5.11357 12.0264 5.11357 12.5935 5.47472 12.9547C5.65504 13.135 5.88725 13.2257 6.11946 13.2257C6.35167 13.2257 6.58388 13.1355 6.7642 12.9547C7.95041 11.7685 9.87209 11.7685 11.0451 12.9416C11.3932 13.3027 11.9734 13.3027 12.3346 12.9416C12.6957 12.5804 12.6957 12.0133 12.3346 11.6521C10.4392 9.76922 7.37064 9.76922 5.47472 11.6652Z" fill="white"/>
<path d="M10.3366 15.0824C10.3366 15.8656 9.70143 16.5008 8.91818 16.5008C8.13442 16.5008 7.49976 15.8656 7.49976 15.0824C7.49976 14.2986 8.13442 13.6639 8.91818 13.6639C9.70143 13.6639 10.3366 14.2986 10.3366 15.0824Z" fill="white"/>
<path opacity="0.4" fill-rule="evenodd" clip-rule="evenodd" d="M0.843974 8.19639C0.515931 7.86835 0.515931 7.33649 0.843974 7.00844C5.29598 2.55643 12.5141 2.55643 16.9661 7.00844C17.2942 7.33649 17.2942 7.86835 16.9661 8.19639C16.6381 8.52443 16.1062 8.52443 15.7782 8.19639C11.9823 4.40047 5.82785 4.40047 2.03192 8.19639C1.70388 8.52443 1.17202 8.52443 0.843974 8.19639Z" fill="white"/>
</svg>
