<?xml version="1.0" encoding="UTF-8" standalone="no"?>
<!DOCTYPE svg PUBLIC "-//W3C//DTD SVG 1.1//EN"
 "http://www.w3.org/Graphics/SVG/1.1/DTD/svg11.dtd">
<!-- Generated by graphviz version 2.44.1 (20200629.0846)
 -->
<!-- Title: G Pages: 1 -->
<svg width="1451pt" height="570pt"
 viewBox="0.00 0.00 1451.48 569.82" xmlns="http://www.w3.org/2000/svg" xmlns:xlink="http://www.w3.org/1999/xlink">
<g id="graph0" class="graph" transform="scale(1 1) rotate(0) translate(4 565.82)">
<title>G</title><style>.edge>path:hover{stroke-width:8}</style>
<polygon fill="white" stroke="transparent" points="-4,4 -4,-565.82 1447.48,-565.82 1447.48,4 -4,4"/>
<!-- aiohttp -->
<g id="node1" class="node">
<title>aiohttp</title><style>.edge>path:hover{stroke-width:8}</style>
<ellipse fill="#d92626" stroke="black" cx="987" cy="-471.82" rx="27.16" ry="18"/>
<text text-anchor="middle" x="987" y="-469.32" font-family="Helvetica,sans-Serif" font-size="10.00" fill="#ffffff">aiohttp</text>
</g>
<!-- asyncssh -->
<g id="node2" class="node">
<title>asyncssh</title><style>.edge>path:hover{stroke-width:8}</style>
<ellipse fill="#bfc040" stroke="black" cx="408" cy="-471.82" rx="34.96" ry="18"/>
<text text-anchor="middle" x="408" y="-469.32" font-family="Helvetica,sans-Serif" font-size="10.00" fill="#000000">asyncssh</text>
</g>
<!-- icd_provisioner -->
<g id="node3" class="node">
<title>icd_provisioner</title><style>.edge>path:hover{stroke-width:8}</style>
<ellipse fill="#06ef06" stroke="black" cx="715" cy="-18" rx="48.04" ry="18"/>
<text text-anchor="middle" x="715" y="-15.5" font-family="Helvetica,sans-Serif" font-size="10.00" fill="#000000">icd_provisioner</text>
</g>
<!-- icd_provisioner_icd_provisioner -->
<g id="node4" class="node">
<title>icd_provisioner_icd_provisioner</title><style>.edge>path:hover{stroke-width:8}</style>
<ellipse fill="#2bac2b" stroke="black" cx="759" cy="-93.21" rx="59.29" ry="21.43"/>
<text text-anchor="middle" x="759" y="-96.21" font-family="Helvetica,sans-Serif" font-size="10.00" fill="#ffffff">icd_provisioner.</text>
<text text-anchor="middle" x="759" y="-85.21" font-family="Helvetica,sans-Serif" font-size="10.00" fill="#ffffff">icd_provisioner</text>
</g>
<!-- icd_provisioner&#45;&gt;icd_provisioner_icd_provisioner -->
<g id="edge5" class="edge">
<title>icd_provisioner&#45;&gt;icd_provisioner_icd_provisioner</title><style>.edge>path:hover{stroke-width:8}</style>
<path fill="none" stroke="black" d="M724.98,-35.61C729.94,-43.86 736.07,-54.06 741.76,-63.53"/>
<polygon fill="#06ef06" stroke="black" points="738.87,-65.51 747.02,-72.28 744.87,-61.91 738.87,-65.51"/>
</g>
<!-- icd_provisioner_subcommand -->
<g id="node5" class="node">
<title>icd_provisioner_subcommand</title><style>.edge>path:hover{stroke-width:8}</style>
<ellipse fill="#039503" stroke="black" cx="672" cy="-171.64" rx="59.29" ry="21.43"/>
<text text-anchor="middle" x="672" y="-174.64" font-family="Helvetica,sans-Serif" font-size="10.00" fill="#ffffff">icd_provisioner.</text>
<text text-anchor="middle" x="672" y="-163.64" font-family="Helvetica,sans-Serif" font-size="10.00" fill="#ffffff">subcommand</text>
</g>
<!-- icd_provisioner&#45;&gt;icd_provisioner_subcommand -->
<g id="edge7" class="edge">
<title>icd_provisioner&#45;&gt;icd_provisioner_subcommand</title><style>.edge>path:hover{stroke-width:8}</style>
<path fill="none" stroke="black" d="M706.17,-35.78C701.1,-46.01 694.98,-59.49 691,-72 683.88,-94.4 678.99,-120.55 675.96,-140.3"/>
<polygon fill="#06ef06" stroke="black" points="672.48,-139.87 674.5,-150.27 679.41,-140.88 672.48,-139.87"/>
</g>
<!-- icd_provisioner_icd_provisioner&#45;&gt;icd_provisioner_subcommand -->
<g id="edge8" class="edge">
<title>icd_provisioner_icd_provisioner&#45;&gt;icd_provisioner_subcommand</title><style>.edge>path:hover{stroke-width:8}</style>
<path fill="none" stroke="black" d="M737.49,-113.11C726.51,-122.75 713,-134.62 701.1,-145.08"/>
<polygon fill="#2bac2b" stroke="black" points="698.76,-142.47 693.56,-151.7 703.38,-147.73 698.76,-142.47"/>
</g>
<!-- icd_provisioner_sdk -->
<g id="node17" class="node">
<title>icd_provisioner_sdk</title><style>.edge>path:hover{stroke-width:8}</style>
<ellipse fill="#10f9f9" stroke="black" cx="805" cy="-471.82" rx="60.76" ry="18"/>
<text text-anchor="middle" x="805" y="-469.32" font-family="Helvetica,sans-Serif" font-size="10.00" fill="#000000">icd_provisioner_sdk</text>
</g>
<!-- icd_provisioner_icd_provisioner&#45;&gt;icd_provisioner_sdk -->
<g id="edge30" class="edge">
<title>icd_provisioner_icd_provisioner&#45;&gt;icd_provisioner_sdk</title><style>.edge>path:hover{stroke-width:8}</style>
<path fill="none" stroke="black" d="M817.77,-96.74C966.27,-104.51 1350.05,-133.6 1425,-228.85 1504.52,-329.91 1298.39,-347.64 1296,-350.83"/>
<path fill="none" stroke="black" d="M1296,-352.83C1292.75,-357.3 989.57,-428.03 861.3,-457.79"/>
<polygon fill="#2bac2b" stroke="black" points="860.22,-454.44 851.27,-460.11 861.8,-461.26 860.22,-454.44"/>
</g>
<!-- plumbum -->
<g id="node19" class="node">
<title>plumbum</title><style>.edge>path:hover{stroke-width:8}</style>
<ellipse fill="#f906f9" stroke="black" cx="560" cy="-543.82" rx="32.93" ry="18"/>
<text text-anchor="middle" x="560" y="-541.32" font-family="Helvetica,sans-Serif" font-size="10.00" fill="#ffffff">plumbum</text>
</g>
<!-- icd_provisioner_icd_provisioner&#45;&gt;plumbum -->
<g id="edge42" class="edge">
<title>icd_provisioner_icd_provisioner&#45;&gt;plumbum</title><style>.edge>path:hover{stroke-width:8}</style>
<path fill="none" stroke="black" d="M699.44,-94.32C520.52,-96.21 0,-114 0,-256.84 0,-256.84 0,-256.84 0,-417.82 0,-523.66 385.84,-539.92 516.98,-542.39"/>
<polygon fill="#2bac2b" stroke="black" points="517,-545.89 527.06,-542.56 517.12,-538.89 517,-545.89"/>
</g>
<!-- plumbum_cli -->
<g id="node20" class="node">
<title>plumbum_cli</title><style>.edge>path:hover{stroke-width:8}</style>
<ellipse fill="#f910f9" stroke="black" cx="685" cy="-543.82" rx="40.74" ry="18"/>
<text text-anchor="middle" x="685" y="-541.32" font-family="Helvetica,sans-Serif" font-size="10.00" fill="#ffffff">plumbum.cli</text>
</g>
<!-- icd_provisioner_icd_provisioner&#45;&gt;plumbum_cli -->
<g id="edge53" class="edge">
<title>icd_provisioner_icd_provisioner&#45;&gt;plumbum_cli</title><style>.edge>path:hover{stroke-width:8}</style>
<path fill="none" stroke="black" d="M1296,-352.83C1271.47,-367.22 1302.65,-389.17 1296,-416.82"/>
</g>
<!-- icd_provisioner_subcommand_lock -->
<g id="node6" class="node">
<title>icd_provisioner_subcommand_lock</title><style>.edge>path:hover{stroke-width:8}</style>
<ellipse fill="#339933" stroke="black" cx="809" cy="-257.84" rx="59.29" ry="28.98"/>
<text text-anchor="middle" x="809" y="-266.34" font-family="Helvetica,sans-Serif" font-size="10.00" fill="#ffffff">icd_provisioner.</text>
<text text-anchor="middle" x="809" y="-255.34" font-family="Helvetica,sans-Serif" font-size="10.00" fill="#ffffff">subcommand.</text>
<text text-anchor="middle" x="809" y="-244.34" font-family="Helvetica,sans-Serif" font-size="10.00" fill="#ffffff">lock</text>
</g>
<!-- icd_provisioner_subcommand&#45;&gt;icd_provisioner_subcommand_lock -->
<g id="edge9" class="edge">
<title>icd_provisioner_subcommand&#45;&gt;icd_provisioner_subcommand_lock</title><style>.edge>path:hover{stroke-width:8}</style>
<path fill="none" stroke="black" d="M700.72,-190.29C719.12,-201.6 743.38,-216.51 764.27,-229.35"/>
<polygon fill="#039503" stroke="black" points="762.64,-232.46 772.99,-234.71 766.3,-226.49 762.64,-232.46"/>
</g>
<!-- icd_provisioner_subcommand_look_up -->
<g id="node7" class="node">
<title>icd_provisioner_subcommand_look_up</title><style>.edge>path:hover{stroke-width:8}</style>
<ellipse fill="#38a838" stroke="black" cx="672" cy="-257.84" rx="59.29" ry="28.98"/>
<text text-anchor="middle" x="672" y="-266.34" font-family="Helvetica,sans-Serif" font-size="10.00" fill="#ffffff">icd_provisioner.</text>
<text text-anchor="middle" x="672" y="-255.34" font-family="Helvetica,sans-Serif" font-size="10.00" fill="#ffffff">subcommand.</text>
<text text-anchor="middle" x="672" y="-244.34" font-family="Helvetica,sans-Serif" font-size="10.00" fill="#ffffff">look_up</text>
</g>
<!-- icd_provisioner_subcommand&#45;&gt;icd_provisioner_subcommand_look_up -->
<g id="edge10" class="edge">
<title>icd_provisioner_subcommand&#45;&gt;icd_provisioner_subcommand_look_up</title><style>.edge>path:hover{stroke-width:8}</style>
<path fill="none" stroke="black" d="M672,-193.02C672,-200.72 672,-209.75 672,-218.55"/>
<polygon fill="#039503" stroke="black" points="668.5,-218.7 672,-228.7 675.5,-218.7 668.5,-218.7"/>
</g>
<!-- icd_provisioner_subcommand_qr_code -->
<g id="node8" class="node">
<title>icd_provisioner_subcommand_qr_code</title><style>.edge>path:hover{stroke-width:8}</style>
<ellipse fill="#309130" stroke="black" cx="946" cy="-257.84" rx="59.29" ry="28.98"/>
<text text-anchor="middle" x="946" y="-266.34" font-family="Helvetica,sans-Serif" font-size="10.00" fill="#ffffff">icd_provisioner.</text>
<text text-anchor="middle" x="946" y="-255.34" font-family="Helvetica,sans-Serif" font-size="10.00" fill="#ffffff">subcommand.</text>
<text text-anchor="middle" x="946" y="-244.34" font-family="Helvetica,sans-Serif" font-size="10.00" fill="#ffffff">qr_code</text>
</g>
<!-- icd_provisioner_subcommand&#45;&gt;icd_provisioner_subcommand_qr_code -->
<g id="edge11" class="edge">
<title>icd_provisioner_subcommand&#45;&gt;icd_provisioner_subcommand_qr_code</title><style>.edge>path:hover{stroke-width:8}</style>
<path fill="none" stroke="black" d="M720.12,-184.13C761.97,-194.53 824.04,-210.92 877,-228.85 882.13,-230.59 887.42,-232.51 892.7,-234.5"/>
<polygon fill="#039503" stroke="black" points="891.53,-237.8 902.12,-238.14 894.06,-231.27 891.53,-237.8"/>
</g>
<!-- icd_provisioner_subcommand_registration -->
<g id="node9" class="node">
<title>icd_provisioner_subcommand_registration</title><style>.edge>path:hover{stroke-width:8}</style>
<ellipse fill="#309130" stroke="black" cx="1083" cy="-257.84" rx="59.29" ry="28.98"/>
<text text-anchor="middle" x="1083" y="-266.34" font-family="Helvetica,sans-Serif" font-size="10.00" fill="#ffffff">icd_provisioner.</text>
<text text-anchor="middle" x="1083" y="-255.34" font-family="Helvetica,sans-Serif" font-size="10.00" fill="#ffffff">subcommand.</text>
<text text-anchor="middle" x="1083" y="-244.34" font-family="Helvetica,sans-Serif" font-size="10.00" fill="#ffffff">registration</text>
</g>
<!-- icd_provisioner_subcommand&#45;&gt;icd_provisioner_subcommand_registration -->
<g id="edge12" class="edge">
<title>icd_provisioner_subcommand&#45;&gt;icd_provisioner_subcommand_registration</title><style>.edge>path:hover{stroke-width:8}</style>
<path fill="none" stroke="black" d="M728.82,-178.07C797.37,-185.5 915.67,-201.2 1014,-228.85 1019.37,-230.36 1024.88,-232.16 1030.35,-234.1"/>
<polygon fill="#039503" stroke="black" points="1029.49,-237.51 1040.08,-237.72 1031.93,-230.95 1029.49,-237.51"/>
</g>
<!-- icd_provisioner_subcommand_scp -->
<g id="node10" class="node">
<title>icd_provisioner_subcommand_scp</title><style>.edge>path:hover{stroke-width:8}</style>
<ellipse fill="#309130" stroke="black" cx="1357" cy="-257.84" rx="59.29" ry="28.98"/>
<text text-anchor="middle" x="1357" y="-266.34" font-family="Helvetica,sans-Serif" font-size="10.00" fill="#ffffff">icd_provisioner.</text>
<text text-anchor="middle" x="1357" y="-255.34" font-family="Helvetica,sans-Serif" font-size="10.00" fill="#ffffff">subcommand.</text>
<text text-anchor="middle" x="1357" y="-244.34" font-family="Helvetica,sans-Serif" font-size="10.00" fill="#ffffff">scp</text>
</g>
<!-- icd_provisioner_subcommand&#45;&gt;icd_provisioner_subcommand_scp -->
<g id="edge13" class="edge">
<title>icd_provisioner_subcommand&#45;&gt;icd_provisioner_subcommand_scp</title><style>.edge>path:hover{stroke-width:8}</style>
<path fill="none" stroke="black" d="M730.56,-175.78C863.19,-183.26 1183.12,-203.39 1288,-228.85 1293.63,-230.22 1299.41,-231.97 1305.11,-233.92"/>
<polygon fill="#039503" stroke="black" points="1303.99,-237.24 1314.58,-237.37 1306.38,-230.66 1303.99,-237.24"/>
</g>
<!-- icd_provisioner_subcommand_serial -->
<g id="node11" class="node">
<title>icd_provisioner_subcommand_serial</title><style>.edge>path:hover{stroke-width:8}</style>
<ellipse fill="#309130" stroke="black" cx="87" cy="-257.84" rx="59.29" ry="28.98"/>
<text text-anchor="middle" x="87" y="-266.34" font-family="Helvetica,sans-Serif" font-size="10.00" fill="#ffffff">icd_provisioner.</text>
<text text-anchor="middle" x="87" y="-255.34" font-family="Helvetica,sans-Serif" font-size="10.00" fill="#ffffff">subcommand.</text>
<text text-anchor="middle" x="87" y="-244.34" font-family="Helvetica,sans-Serif" font-size="10.00" fill="#ffffff">serial</text>
</g>
<!-- icd_provisioner_subcommand&#45;&gt;icd_provisioner_subcommand_serial -->
<g id="edge14" class="edge">
<title>icd_provisioner_subcommand&#45;&gt;icd_provisioner_subcommand_serial</title><style>.edge>path:hover{stroke-width:8}</style>
<path fill="none" stroke="black" d="M612.64,-173.8C515.67,-176.86 317.87,-188.05 156,-228.85 150.38,-230.27 144.61,-232.05 138.92,-234.02"/>
<polygon fill="#039503" stroke="black" points="137.63,-230.76 129.45,-237.49 140.04,-237.34 137.63,-230.76"/>
</g>
<!-- icd_provisioner_subcommand_serial_number -->
<g id="node12" class="node">
<title>icd_provisioner_subcommand_serial_number</title><style>.edge>path:hover{stroke-width:8}</style>
<ellipse fill="#309130" stroke="black" cx="1220" cy="-257.84" rx="59.29" ry="28.98"/>
<text text-anchor="middle" x="1220" y="-266.34" font-family="Helvetica,sans-Serif" font-size="10.00" fill="#ffffff">icd_provisioner.</text>
<text text-anchor="middle" x="1220" y="-255.34" font-family="Helvetica,sans-Serif" font-size="10.00" fill="#ffffff">subcommand.</text>
<text text-anchor="middle" x="1220" y="-244.34" font-family="Helvetica,sans-Serif" font-size="10.00" fill="#ffffff">serial_number</text>
</g>
<!-- icd_provisioner_subcommand&#45;&gt;icd_provisioner_subcommand_serial_number -->
<g id="edge15" class="edge">
<title>icd_provisioner_subcommand&#45;&gt;icd_provisioner_subcommand_serial_number</title><style>.edge>path:hover{stroke-width:8}</style>
<path fill="none" stroke="black" d="M731.18,-174.49C822.57,-178.48 1002.98,-190.88 1151,-228.85 1156.62,-230.29 1162.38,-232.09 1168.07,-234.07"/>
<polygon fill="#039503" stroke="black" points="1166.94,-237.38 1177.54,-237.55 1169.36,-230.81 1166.94,-237.38"/>
</g>
<!-- icd_provisioner_subcommand_ssh -->
<g id="node13" class="node">
<title>icd_provisioner_subcommand_ssh</title><style>.edge>path:hover{stroke-width:8}</style>
<ellipse fill="#309130" stroke="black" cx="361" cy="-257.84" rx="59.29" ry="28.98"/>
<text text-anchor="middle" x="361" y="-266.34" font-family="Helvetica,sans-Serif" font-size="10.00" fill="#ffffff">icd_provisioner.</text>
<text text-anchor="middle" x="361" y="-255.34" font-family="Helvetica,sans-Serif" font-size="10.00" fill="#ffffff">subcommand.</text>
<text text-anchor="middle" x="361" y="-244.34" font-family="Helvetica,sans-Serif" font-size="10.00" fill="#ffffff">ssh</text>
</g>
<!-- icd_provisioner_subcommand&#45;&gt;icd_provisioner_subcommand_ssh -->
<g id="edge16" class="edge">
<title>icd_provisioner_subcommand&#45;&gt;icd_provisioner_subcommand_ssh</title><style>.edge>path:hover{stroke-width:8}</style>
<path fill="none" stroke="black" d="M620.38,-182.18C570.95,-191.89 494.56,-208.4 430,-228.85 424.76,-230.51 419.36,-232.39 414,-234.37"/>
<polygon fill="#039503" stroke="black" points="412.52,-231.19 404.42,-238.02 415.01,-237.73 412.52,-231.19"/>
</g>
<!-- icd_provisioner_subcommand_subcommand -->
<g id="node14" class="node">
<title>icd_provisioner_subcommand_subcommand</title><style>.edge>path:hover{stroke-width:8}</style>
<ellipse fill="#06ef06" stroke="black" cx="672" cy="-351.83" rx="59.29" ry="28.98"/>
<text text-anchor="middle" x="672" y="-360.33" font-family="Helvetica,sans-Serif" font-size="10.00" fill="#000000">icd_provisioner.</text>
<text text-anchor="middle" x="672" y="-349.33" font-family="Helvetica,sans-Serif" font-size="10.00" fill="#000000">subcommand.</text>
<text text-anchor="middle" x="672" y="-338.33" font-family="Helvetica,sans-Serif" font-size="10.00" fill="#000000">subcommand</text>
</g>
<!-- icd_provisioner_subcommand&#45;&gt;icd_provisioner_subcommand_subcommand -->
<g id="edge17" class="edge">
<title>icd_provisioner_subcommand&#45;&gt;icd_provisioner_subcommand_subcommand</title><style>.edge>path:hover{stroke-width:8}</style>
<path fill="none" stroke="black" d="M640.74,-189.78C626.75,-199.28 611.7,-212.5 604,-228.85 593.02,-252.17 593.78,-263.18 604,-286.84 609.69,-300.01 619.58,-311.72 630.08,-321.41"/>
<polygon fill="#039503" stroke="black" points="627.93,-324.18 637.78,-328.1 632.52,-318.9 627.93,-324.18"/>
</g>
<!-- icd_provisioner_subcommand_valve -->
<g id="node15" class="node">
<title>icd_provisioner_subcommand_valve</title><style>.edge>path:hover{stroke-width:8}</style>
<ellipse fill="#339933" stroke="black" cx="224" cy="-257.84" rx="59.29" ry="28.98"/>
<text text-anchor="middle" x="224" y="-266.34" font-family="Helvetica,sans-Serif" font-size="10.00" fill="#ffffff">icd_provisioner.</text>
<text text-anchor="middle" x="224" y="-255.34" font-family="Helvetica,sans-Serif" font-size="10.00" fill="#ffffff">subcommand.</text>
<text text-anchor="middle" x="224" y="-244.34" font-family="Helvetica,sans-Serif" font-size="10.00" fill="#ffffff">valve</text>
</g>
<!-- icd_provisioner_subcommand&#45;&gt;icd_provisioner_subcommand_valve -->
<g id="edge28" class="edge">
<title>icd_provisioner_subcommand&#45;&gt;icd_provisioner_subcommand_valve</title><style>.edge>path:hover{stroke-width:8}</style>
<path fill="none" stroke="black" d="M614.3,-176.9C539.23,-183.41 404.5,-198.44 293,-228.85 287.62,-230.32 282.1,-232.09 276.63,-234.01"/>
<polygon fill="#039503" stroke="black" points="275.05,-230.86 266.89,-237.61 277.48,-237.43 275.05,-230.86"/>
</g>
<!-- icd_provisioner_subcommand_wifi -->
<g id="node16" class="node">
<title>icd_provisioner_subcommand_wifi</title><style>.edge>path:hover{stroke-width:8}</style>
<ellipse fill="#339933" stroke="black" cx="498" cy="-257.84" rx="59.29" ry="28.98"/>
<text text-anchor="middle" x="498" y="-266.34" font-family="Helvetica,sans-Serif" font-size="10.00" fill="#ffffff">icd_provisioner.</text>
<text text-anchor="middle" x="498" y="-255.34" font-family="Helvetica,sans-Serif" font-size="10.00" fill="#ffffff">subcommand.</text>
<text text-anchor="middle" x="498" y="-244.34" font-family="Helvetica,sans-Serif" font-size="10.00" fill="#ffffff">wifi</text>
</g>
<!-- icd_provisioner_subcommand&#45;&gt;icd_provisioner_subcommand_wifi -->
<g id="edge29" class="edge">
<title>icd_provisioner_subcommand&#45;&gt;icd_provisioner_subcommand_wifi</title><style>.edge>path:hover{stroke-width:8}</style>
<path fill="none" stroke="black" d="M638.04,-189.07C612.51,-201.43 577.14,-218.54 548.34,-232.49"/>
<polygon fill="#039503" stroke="black" points="546.71,-229.38 539.23,-236.89 549.76,-235.68 546.71,-229.38"/>
</g>
<!-- icd_provisioner_subcommand_lock&#45;&gt;icd_provisioner_subcommand_subcommand -->
<g id="edge18" class="edge">
<title>icd_provisioner_subcommand_lock&#45;&gt;icd_provisioner_subcommand_subcommand</title><style>.edge>path:hover{stroke-width:8}</style>
<path fill="none" stroke="black" d="M774.78,-281.82C756.56,-294.06 733.97,-309.22 714.61,-322.22"/>
<polygon fill="#339933" stroke="black" points="712.61,-319.35 706.26,-327.83 716.51,-325.16 712.61,-319.35"/>
</g>
<!-- icd_provisioner_subcommand_lock&#45;&gt;icd_provisioner_sdk -->
<g id="edge31" class="edge">
<title>icd_provisioner_subcommand_lock&#45;&gt;icd_provisioner_sdk</title><style>.edge>path:hover{stroke-width:8}</style>
<path fill="none" stroke="black" d="M819.05,-286.59C825.02,-304.62 832.01,-328.79 835,-350.83"/>
<path fill="none" stroke="black" d="M835,-352.83C839.45,-385.6 790.9,-384.31 797,-416.82"/>
</g>
<!-- icd_provisioner_subcommand_lock&#45;&gt;plumbum -->
<g id="edge43" class="edge">
<title>icd_provisioner_subcommand_lock&#45;&gt;plumbum</title><style>.edge>path:hover{stroke-width:8}</style>
<path fill="none" stroke="black" d="M796.52,-286.59C784.18,-312.4 763.76,-351.22 740,-380.82 693.46,-438.79 625.34,-493.97 587.65,-522.55"/>
<polygon fill="#339933" stroke="black" points="585.09,-520.1 579.2,-528.9 589.3,-525.69 585.09,-520.1"/>
</g>
<!-- icd_provisioner_subcommand_lock&#45;&gt;plumbum_cli -->
<g id="edge54" class="edge">
<title>icd_provisioner_subcommand_lock&#45;&gt;plumbum_cli</title><style>.edge>path:hover{stroke-width:8}</style>
<path fill="none" stroke="black" d="M835,-352.83C844.13,-420.1 962.12,-409.98 932,-470.82"/>
<path fill="none" stroke="black" d="M932,-472.82C909.68,-505.6 799.01,-526.64 733.62,-536.41"/>
<polygon fill="#339933" stroke="black" points="732.93,-532.98 723.54,-537.88 733.94,-539.9 732.93,-532.98"/>
</g>
<!-- icd_provisioner_subcommand_look_up&#45;&gt;icd_provisioner_subcommand_subcommand -->
<g id="edge19" class="edge">
<title>icd_provisioner_subcommand_look_up&#45;&gt;icd_provisioner_subcommand_subcommand</title><style>.edge>path:hover{stroke-width:8}</style>
<path fill="none" stroke="black" d="M672,-286.94C672,-294.98 672,-303.88 672,-312.42"/>
<polygon fill="#38a838" stroke="black" points="668.5,-312.58 672,-322.58 675.5,-312.58 668.5,-312.58"/>
</g>
<!-- icd_provisioner_subcommand_look_up&#45;&gt;icd_provisioner_sdk -->
<g id="edge32" class="edge">
<title>icd_provisioner_subcommand_look_up&#45;&gt;icd_provisioner_sdk</title><style>.edge>path:hover{stroke-width:8}</style>
<path fill="none" stroke="black" d="M703.52,-282.53C736.91,-310.27 786.3,-359.76 797,-416.82"/>
</g>
<!-- icd_provisioner_subcommand_qr_code&#45;&gt;aiohttp -->
<g id="edge1" class="edge">
<title>icd_provisioner_subcommand_qr_code&#45;&gt;aiohttp</title><style>.edge>path:hover{stroke-width:8}</style>
<path fill="none" stroke="black" d="M949,-417.82C950.12,-429.55 956.62,-440.51 963.93,-449.38"/>
<polygon fill="#309130" stroke="black" points="961.44,-451.84 970.74,-456.9 966.62,-447.14 961.44,-451.84"/>
</g>
<!-- icd_provisioner_subcommand_qr_code&#45;&gt;icd_provisioner_subcommand_subcommand -->
<g id="edge20" class="edge">
<title>icd_provisioner_subcommand_qr_code&#45;&gt;icd_provisioner_subcommand_subcommand</title><style>.edge>path:hover{stroke-width:8}</style>
<path fill="none" stroke="black" d="M901.67,-277.46C893.51,-280.7 885.03,-283.96 877,-286.84 828.75,-304.12 773.2,-321.3 732.11,-333.49"/>
<polygon fill="#309130" stroke="black" points="731.11,-330.14 722.51,-336.33 733.1,-336.85 731.11,-330.14"/>
</g>
<!-- icd_provisioner_subcommand_qr_code&#45;&gt;icd_provisioner_sdk -->
<g id="edge33" class="edge">
<title>icd_provisioner_subcommand_qr_code&#45;&gt;icd_provisioner_sdk</title><style>.edge>path:hover{stroke-width:8}</style>
<path fill="none" stroke="black" d="M911,-352.83C899.26,-361.38 793.52,-402.71 797,-416.82"/>
<path fill="none" stroke="black" d="M943.34,-287.07C939.71,-308.29 931.17,-336.14 911,-350.83"/>
</g>
<!-- icd_provisioner_subcommand_qr_code&#45;&gt;plumbum -->
<g id="edge44" class="edge">
<title>icd_provisioner_subcommand_qr_code&#45;&gt;plumbum</title><style>.edge>path:hover{stroke-width:8}</style>
<path fill="none" stroke="black" d="M949,-352.83C929.59,-407.33 936.71,-431.79 894,-470.82"/>
<path fill="none" stroke="black" d="M948.21,-287.04C949.32,-305.25 950.2,-329.45 949,-350.83"/>
<path fill="none" stroke="black" d="M894,-472.82C883.83,-477.82 885.25,-485 875,-489.82 777.39,-535.7 741,-505.88 635,-525.82 623.33,-528.01 610.71,-530.74 599.22,-533.35"/>
<polygon fill="#309130" stroke="black" points="598.41,-529.95 589.46,-535.61 599.99,-536.77 598.41,-529.95"/>
</g>
<!-- icd_provisioner_subcommand_qr_code&#45;&gt;plumbum_cli -->
<g id="edge55" class="edge">
<title>icd_provisioner_subcommand_qr_code&#45;&gt;plumbum_cli</title><style>.edge>path:hover{stroke-width:8}</style>
<path fill="none" stroke="black" d="M949,-417.82C951.35,-442.44 945.92,-450.37 932,-470.82"/>
<path fill="none" stroke="black" d="M949,-352.83C939.46,-379.62 946.3,-388.51 949,-416.82"/>
</g>
<!-- icd_provisioner_subcommand_registration&#45;&gt;aiohttp -->
<g id="edge2" class="edge">
<title>icd_provisioner_subcommand_registration&#45;&gt;aiohttp</title><style>.edge>path:hover{stroke-width:8}</style>
<path fill="none" stroke="black" d="M987,-417.82C984.05,-425.83 983.23,-435 983.4,-443.43"/>
<polygon fill="#309130" stroke="black" points="979.92,-443.82 984.04,-453.58 986.9,-443.38 979.92,-443.82"/>
</g>
<!-- icd_provisioner_subcommand_registration&#45;&gt;icd_provisioner_subcommand_subcommand -->
<g id="edge21" class="edge">
<title>icd_provisioner_subcommand_registration&#45;&gt;icd_provisioner_subcommand_subcommand</title><style>.edge>path:hover{stroke-width:8}</style>
<path fill="none" stroke="black" d="M1039.67,-277.96C1031.26,-281.23 1022.44,-284.36 1014,-286.84 930.26,-311.36 906.77,-306.78 821,-322.84 793.48,-327.99 763.1,-333.69 736.99,-338.6"/>
<polygon fill="#309130" stroke="black" points="736.02,-335.22 726.84,-340.51 737.31,-342.1 736.02,-335.22"/>
</g>
<!-- icd_provisioner_subcommand_registration&#45;&gt;icd_provisioner_sdk -->
<g id="edge34" class="edge">
<title>icd_provisioner_subcommand_registration&#45;&gt;icd_provisioner_sdk</title><style>.edge>path:hover{stroke-width:8}</style>
<path fill="none" stroke="black" d="M1038.07,-277.07C997.85,-293.58 943.87,-316.3 935,-322.84 921.81,-332.56 924.25,-341.18 911,-350.83"/>
</g>
<!-- icd_provisioner_subcommand_registration&#45;&gt;plumbum -->
<g id="edge45" class="edge">
<title>icd_provisioner_subcommand_registration&#45;&gt;plumbum</title><style>.edge>path:hover{stroke-width:8}</style>
<path fill="none" stroke="black" d="M1049.16,-281.92C1035.48,-292.85 1020.66,-306.98 1011,-322.84 988.57,-359.65 1001.91,-376.37 987,-416.82"/>
<path fill="none" stroke="black" d="M987,-417.82C971.24,-448.61 947.51,-435.78 918,-453.82 906.85,-460.63 905.73,-465.05 894,-470.82"/>
</g>
<!-- icd_provisioner_subcommand_registration&#45;&gt;plumbum_cli -->
<g id="edge56" class="edge">
<title>icd_provisioner_subcommand_registration&#45;&gt;plumbum_cli</title><style>.edge>path:hover{stroke-width:8}</style>
<path fill="none" stroke="black" d="M1258,-472.82C1223.67,-511.74 869.74,-533.5 735.9,-540.4"/>
<polygon fill="#309130" stroke="black" points="735.33,-536.92 725.52,-540.92 735.68,-543.91 735.33,-536.92"/>
<path fill="none" stroke="black" d="M1220,-352.83C1237.06,-405.21 1294.45,-429.5 1258,-470.82"/>
<path fill="none" stroke="black" d="M1127.3,-277.28C1158.17,-292.46 1197.67,-317 1220,-350.83"/>
</g>
<!-- icd_provisioner_subcommand_scp&#45;&gt;icd_provisioner_icd_provisioner -->
<g id="edge6" class="edge">
<title>icd_provisioner_subcommand_scp&#45;&gt;icd_provisioner_icd_provisioner</title><style>.edge>path:hover{stroke-width:8}</style>
<path fill="none" stroke="black" d="M1313.16,-238.02C1304.88,-234.76 1296.23,-231.56 1288,-228.85 1120.87,-173.97 917.98,-127.89 819.06,-106.7"/>
<polygon fill="#309130" stroke="black" points="819.75,-103.27 809.24,-104.61 818.29,-110.12 819.75,-103.27"/>
</g>
<!-- icd_provisioner_subcommand_scp&#45;&gt;icd_provisioner_subcommand_subcommand -->
<g id="edge22" class="edge">
<title>icd_provisioner_subcommand_scp&#45;&gt;icd_provisioner_subcommand_subcommand</title><style>.edge>path:hover{stroke-width:8}</style>
<path fill="none" stroke="black" d="M1314.61,-278.42C1305.96,-281.73 1296.81,-284.76 1288,-286.84 1085.37,-334.53 1027.38,-295.58 821,-322.84 792.89,-326.55 762.05,-332.09 735.75,-337.27"/>
<polygon fill="#309130" stroke="black" points="735.04,-333.85 725.92,-339.23 736.41,-340.71 735.04,-333.85"/>
</g>
<!-- icd_provisioner_subcommand_scp&#45;&gt;icd_provisioner_sdk -->
<g id="edge35" class="edge">
<title>icd_provisioner_subcommand_scp&#45;&gt;icd_provisioner_sdk</title><style>.edge>path:hover{stroke-width:8}</style>
<path fill="none" stroke="black" d="M1312.6,-277.28C1304.45,-280.54 1295.99,-283.85 1288,-286.84 1205.71,-317.58 1160.92,-286.59 1101,-350.83"/>
<path fill="none" stroke="black" d="M1101,-352.83C1064.84,-391.59 1049.39,-396.19 1001,-417.82 976.08,-428.95 909.61,-446 860.96,-457.74"/>
<polygon fill="#309130" stroke="black" points="860.09,-454.36 851.18,-460.09 861.72,-461.16 860.09,-454.36"/>
</g>
<!-- icd_provisioner_subcommand_scp&#45;&gt;plumbum -->
<g id="edge46" class="edge">
<title>icd_provisioner_subcommand_scp&#45;&gt;plumbum</title><style>.edge>path:hover{stroke-width:8}</style>
<path fill="none" stroke="black" d="M1101,-352.83C1078.11,-369.7 1103.02,-388.45 1101,-416.82"/>
</g>
<!-- icd_provisioner_subcommand_scp&#45;&gt;plumbum_cli -->
<g id="edge57" class="edge">
<title>icd_provisioner_subcommand_scp&#45;&gt;plumbum_cli</title><style>.edge>path:hover{stroke-width:8}</style>
<path fill="none" stroke="black" d="M1296,-417.82C1291.29,-446.42 1280.61,-452.68 1258,-470.82"/>
<path fill="none" stroke="black" d="M1319.73,-280.57C1305.12,-291.26 1289.96,-305.58 1282,-322.84 1271.21,-346.24 1277.25,-355.49 1282,-380.82 1285.17,-397.69 1298.79,-399.88 1296,-416.82"/>
</g>
<!-- icd_provisioner_subcommand_serial&#45;&gt;icd_provisioner_subcommand_subcommand -->
<g id="edge23" class="edge">
<title>icd_provisioner_subcommand_serial&#45;&gt;icd_provisioner_subcommand_subcommand</title><style>.edge>path:hover{stroke-width:8}</style>
<path fill="none" stroke="black" d="M129.4,-278.39C138.05,-281.7 147.2,-284.74 156,-286.84 348.19,-332.49 406.38,-279.03 599,-322.84 605.58,-324.33 612.36,-326.3 619.01,-328.51"/>
<polygon fill="#309130" stroke="black" points="618.03,-331.87 628.62,-331.88 620.34,-325.27 618.03,-331.87"/>
</g>
<!-- icd_provisioner_subcommand_serial&#45;&gt;icd_provisioner_sdk -->
<g id="edge36" class="edge">
<title>icd_provisioner_subcommand_serial&#45;&gt;icd_provisioner_sdk</title><style>.edge>path:hover{stroke-width:8}</style>
<path fill="none" stroke="black" d="M288,-352.83C433.15,-434.64 631.45,-459.74 735.21,-467.44"/>
<polygon fill="#309130" stroke="black" points="735.04,-470.93 745.26,-468.15 735.53,-463.95 735.04,-470.93"/>
</g>
<!-- ipcq -->
<g id="node18" class="node">
<title>ipcq</title><style>.edge>path:hover{stroke-width:8}</style>
<ellipse fill="#5353b6" stroke="black" cx="195" cy="-471.82" rx="27" ry="18"/>
<text text-anchor="middle" x="195" y="-469.32" font-family="Helvetica,sans-Serif" font-size="10.00" fill="#ffffff">ipcq</text>
</g>
<!-- icd_provisioner_subcommand_serial&#45;&gt;ipcq -->
<g id="edge41" class="edge">
<title>icd_provisioner_subcommand_serial&#45;&gt;ipcq</title><style>.edge>path:hover{stroke-width:8}</style>
<path fill="none" stroke="black" d="M212,-417.82C212.87,-426.94 210.76,-436.59 207.76,-445.11"/>
<polygon fill="#309130" stroke="black" points="204.47,-443.92 203.95,-454.5 210.96,-446.54 204.47,-443.92"/>
<path fill="none" stroke="black" d="M120.12,-282.01C155.26,-309.46 206.47,-358.85 212,-416.82"/>
</g>
<!-- icd_provisioner_subcommand_serial&#45;&gt;plumbum -->
<g id="edge47" class="edge">
<title>icd_provisioner_subcommand_serial&#45;&gt;plumbum</title><style>.edge>path:hover{stroke-width:8}</style>
<path fill="none" stroke="black" d="M250,-472.82C287.16,-510.19 441.46,-530.76 517.4,-538.8"/>
<polygon fill="#309130" stroke="black" points="517.27,-542.3 527.57,-539.85 517.99,-535.34 517.27,-542.3"/>
<path fill="none" stroke="black" d="M212,-417.82C220.12,-445.64 229.56,-450.27 250,-470.82"/>
</g>
<!-- icd_provisioner_subcommand_serial&#45;&gt;plumbum_cli -->
<g id="edge58" class="edge">
<title>icd_provisioner_subcommand_serial&#45;&gt;plumbum_cli</title><style>.edge>path:hover{stroke-width:8}</style>
<path fill="none" stroke="black" d="M288,-352.83C294.6,-357.02 311.57,-410.79 315,-417.82 326.88,-442.14 322.13,-456.34 345,-470.82"/>
<path fill="none" stroke="black" d="M130.71,-277.64C180.9,-299.43 259.91,-334.44 288,-350.83"/>
<path fill="none" stroke="black" d="M345,-472.82C354,-479.7 353.75,-484.99 364,-489.82 460.79,-535.39 496.67,-507.08 602,-525.82 614.11,-527.97 627.16,-530.53 639.24,-533"/>
<polygon fill="#309130" stroke="black" points="638.62,-536.45 649.13,-535.05 640.04,-529.59 638.62,-536.45"/>
</g>
<!-- icd_provisioner_subcommand_serial_number&#45;&gt;aiohttp -->
<g id="edge3" class="edge">
<title>icd_provisioner_subcommand_serial_number&#45;&gt;aiohttp</title><style>.edge>path:hover{stroke-width:8}</style>
<path fill="none" stroke="black" d="M1025,-352.83C1019.31,-360.21 1003.92,-411.64 994.56,-444.12"/>
<polygon fill="#309130" stroke="black" points="991.14,-443.34 991.76,-453.92 997.87,-445.27 991.14,-443.34"/>
</g>
<!-- icd_provisioner_subcommand_serial_number&#45;&gt;icd_provisioner_subcommand_subcommand -->
<g id="edge24" class="edge">
<title>icd_provisioner_subcommand_serial_number&#45;&gt;icd_provisioner_subcommand_subcommand</title><style>.edge>path:hover{stroke-width:8}</style>
<path fill="none" stroke="black" d="M1177.55,-278.2C1168.91,-281.53 1159.77,-284.62 1151,-286.84 1007.94,-322.91 966.94,-301.2 821,-322.84 792.95,-326.99 762.12,-332.61 735.82,-337.72"/>
<polygon fill="#309130" stroke="black" points="735.11,-334.29 725.97,-339.65 736.46,-341.16 735.11,-334.29"/>
</g>
<!-- icd_provisioner_subcommand_serial_number&#45;&gt;icd_provisioner_sdk -->
<g id="edge37" class="edge">
<title>icd_provisioner_subcommand_serial_number&#45;&gt;icd_provisioner_sdk</title><style>.edge>path:hover{stroke-width:8}</style>
<path fill="none" stroke="black" d="M1025,-352.83C999.92,-381.92 904.11,-427.29 847.53,-452.45"/>
<polygon fill="#309130" stroke="black" points="845.86,-449.36 838.13,-456.61 848.69,-455.76 845.86,-449.36"/>
<path fill="none" stroke="black" d="M1175.49,-277.42C1121.17,-300.46 1035.25,-338.23 1025,-350.83"/>
</g>
<!-- icd_provisioner_subcommand_serial_number&#45;&gt;plumbum -->
<g id="edge48" class="edge">
<title>icd_provisioner_subcommand_serial_number&#45;&gt;plumbum</title><style>.edge>path:hover{stroke-width:8}</style>
<path fill="none" stroke="black" d="M1025,-352.83C997.13,-387.08 1089.53,-374.18 1101,-416.82"/>
<path fill="none" stroke="black" d="M1101,-417.82C1113.26,-463.38 1066.1,-470.63 1023,-489.82 864.79,-560.27 806.04,-498.62 635,-525.82 623.27,-527.68 610.64,-530.3 599.15,-532.93"/>
<polygon fill="#309130" stroke="black" points="598.33,-529.53 589.39,-535.22 599.93,-536.34 598.33,-529.53"/>
</g>
<!-- icd_provisioner_subcommand_serial_number&#45;&gt;plumbum_cli -->
<g id="edge59" class="edge">
<title>icd_provisioner_subcommand_serial_number&#45;&gt;plumbum_cli</title><style>.edge>path:hover{stroke-width:8}</style>
<path fill="none" stroke="black" d="M1212.41,-286.89C1208.84,-306.41 1207.68,-332.17 1220,-350.83"/>
</g>
<!-- icd_provisioner_subcommand_ssh&#45;&gt;asyncssh -->
<g id="edge4" class="edge">
<title>icd_provisioner_subcommand_ssh&#45;&gt;asyncssh</title><style>.edge>path:hover{stroke-width:8}</style>
<path fill="none" stroke="black" d="M522,-352.83C542.27,-397.53 463.07,-378.82 432,-416.82 425.42,-424.87 420.29,-435.01 416.49,-444.32"/>
<polygon fill="#309130" stroke="black" points="413.11,-443.37 412.88,-453.96 419.66,-445.82 413.11,-443.37"/>
<path fill="none" stroke="black" d="M405.66,-277.28C439.45,-291.67 482.58,-311.13 498,-322.84 511.05,-332.75 514.35,-336.33 522,-350.83"/>
</g>
<!-- icd_provisioner_subcommand_ssh&#45;&gt;icd_provisioner_subcommand_subcommand -->
<g id="edge25" class="edge">
<title>icd_provisioner_subcommand_ssh&#45;&gt;icd_provisioner_subcommand_subcommand</title><style>.edge>path:hover{stroke-width:8}</style>
<path fill="none" stroke="black" d="M404.38,-277.79C412.79,-281.07 421.6,-284.26 430,-286.84 503.42,-309.36 525.37,-301.02 599,-322.84 605.15,-324.66 611.52,-326.76 617.81,-328.98"/>
<polygon fill="#309130" stroke="black" points="617,-332.41 627.6,-332.53 619.39,-325.83 617,-332.41"/>
</g>
<!-- icd_provisioner_subcommand_ssh&#45;&gt;icd_provisioner_sdk -->
<g id="edge38" class="edge">
<title>icd_provisioner_subcommand_ssh&#45;&gt;icd_provisioner_sdk</title><style>.edge>path:hover{stroke-width:8}</style>
<path fill="none" stroke="black" d="M522,-352.83C542.61,-391.88 557.87,-398.39 598,-416.82"/>
</g>
<!-- icd_provisioner_subcommand_ssh&#45;&gt;plumbum -->
<g id="edge49" class="edge">
<title>icd_provisioner_subcommand_ssh&#45;&gt;plumbum</title><style>.edge>path:hover{stroke-width:8}</style>
<path fill="none" stroke="black" d="M348.44,-286.26C336.87,-311.17 318.96,-348.81 302,-380.82 280.37,-421.64 225.57,-431.61 250,-470.82"/>
</g>
<!-- icd_provisioner_subcommand_ssh&#45;&gt;plumbum_cli -->
<g id="edge60" class="edge">
<title>icd_provisioner_subcommand_ssh&#45;&gt;plumbum_cli</title><style>.edge>path:hover{stroke-width:8}</style>
<path fill="none" stroke="black" d="M522,-352.83C558.4,-421.79 623.85,-487.42 659.75,-520.5"/>
<polygon fill="#309130" stroke="black" points="657.61,-523.29 667.36,-527.44 662.32,-518.12 657.61,-523.29"/>
</g>
<!-- icd_provisioner_subcommand_subcommand&#45;&gt;plumbum -->
<g id="edge50" class="edge">
<title>icd_provisioner_subcommand_subcommand&#45;&gt;plumbum</title><style>.edge>path:hover{stroke-width:8}</style>
<path fill="none" stroke="black" d="M631.46,-373.26C614.24,-383.95 595.53,-398.63 584,-416.82 565.03,-446.74 560.37,-488.13 559.56,-515.18"/>
<polygon fill="#06ef06" stroke="black" points="556.05,-515.43 559.41,-525.48 563.05,-515.53 556.05,-515.43"/>
</g>
<!-- icd_provisioner_subcommand_subcommand&#45;&gt;plumbum_cli -->
<g id="edge61" class="edge">
<title>icd_provisioner_subcommand_subcommand&#45;&gt;plumbum_cli</title><style>.edge>path:hover{stroke-width:8}</style>
<path fill="none" stroke="black" d="M673.92,-380.86C676.4,-417.06 680.68,-479.66 683.13,-515.51"/>
<polygon fill="#06ef06" stroke="black" points="679.66,-515.98 683.83,-525.71 686.64,-515.5 679.66,-515.98"/>
</g>
<!-- icd_provisioner_subcommand_valve&#45;&gt;icd_provisioner_subcommand_subcommand -->
<g id="edge26" class="edge">
<title>icd_provisioner_subcommand_valve&#45;&gt;icd_provisioner_subcommand_subcommand</title><style>.edge>path:hover{stroke-width:8}</style>
<path fill="none" stroke="black" d="M266.46,-278.14C275.1,-281.47 284.23,-284.59 293,-286.84 425.64,-320.88 466.04,-290.07 599,-322.84 605.46,-324.43 612.13,-326.44 618.68,-328.65"/>
<polygon fill="#339933" stroke="black" points="617.58,-331.97 628.17,-332 619.91,-325.37 617.58,-331.97"/>
</g>
<!-- icd_provisioner_subcommand_valve&#45;&gt;icd_provisioner_sdk -->
<g id="edge39" class="edge">
<title>icd_provisioner_subcommand_valve&#45;&gt;icd_provisioner_sdk</title><style>.edge>path:hover{stroke-width:8}</style>
<path fill="none" stroke="black" d="M267.16,-277.78C322.7,-302.06 422.25,-345.26 508,-380.82 547.8,-397.32 558.85,-398.84 598,-416.82"/>
<path fill="none" stroke="black" d="M598,-417.82C645.73,-437.2 702.59,-451.15 744.63,-459.86"/>
<polygon fill="#339933" stroke="black" points="743.94,-463.29 754.44,-461.85 745.34,-456.43 743.94,-463.29"/>
</g>
<!-- icd_provisioner_subcommand_valve&#45;&gt;plumbum -->
<g id="edge51" class="edge">
<title>icd_provisioner_subcommand_valve&#45;&gt;plumbum</title><style>.edge>path:hover{stroke-width:8}</style>
<path fill="none" stroke="black" d="M223.62,-286.99C223.52,-338.31 226.29,-444.27 250,-470.82"/>
</g>
<!-- icd_provisioner_subcommand_valve&#45;&gt;plumbum_cli -->
<g id="edge62" class="edge">
<title>icd_provisioner_subcommand_valve&#45;&gt;plumbum_cli</title><style>.edge>path:hover{stroke-width:8}</style>
<path fill="none" stroke="black" d="M260.02,-281.27C274.92,-292.17 291.2,-306.46 302,-322.84 339.72,-380 293.6,-425.55 345,-470.82"/>
</g>
<!-- icd_provisioner_subcommand_wifi&#45;&gt;icd_provisioner_subcommand_subcommand -->
<g id="edge27" class="edge">
<title>icd_provisioner_subcommand_wifi&#45;&gt;icd_provisioner_subcommand_subcommand</title><style>.edge>path:hover{stroke-width:8}</style>
<path fill="none" stroke="black" d="M537.48,-279.72C563.07,-293.24 596.56,-310.95 623.72,-325.31"/>
<polygon fill="#339933" stroke="black" points="622.2,-328.46 632.67,-330.04 625.47,-322.27 622.2,-328.46"/>
</g>
<!-- icd_provisioner_subcommand_wifi&#45;&gt;icd_provisioner_sdk -->
<g id="edge40" class="edge">
<title>icd_provisioner_subcommand_wifi&#45;&gt;icd_provisioner_sdk</title><style>.edge>path:hover{stroke-width:8}</style>
<path fill="none" stroke="black" d="M797,-417.82C799.04,-426.08 800.64,-435.19 801.86,-443.51"/>
<polygon fill="#339933" stroke="black" points="798.4,-444.03 803.2,-453.48 805.33,-443.1 798.4,-444.03"/>
<path fill="none" stroke="black" d="M585,-352.83C594.16,-364.75 591.42,-372.59 604,-380.82 640.51,-404.71 786.56,-374.46 797,-416.82"/>
</g>
<!-- icd_provisioner_subcommand_wifi&#45;&gt;plumbum -->
<g id="edge52" class="edge">
<title>icd_provisioner_subcommand_wifi&#45;&gt;plumbum</title><style>.edge>path:hover{stroke-width:8}</style>
<path fill="none" stroke="black" d="M585,-352.83C613.3,-389.68 564.05,-407.75 558,-453.82 555.92,-469.68 557.7,-473.82 558,-489.82 558.16,-498.14 558.45,-507.19 558.77,-515.42"/>
<polygon fill="#339933" stroke="black" points="555.28,-515.79 559.19,-525.64 562.28,-515.5 555.28,-515.79"/>
<path fill="none" stroke="black" d="M520.73,-284.74C537.78,-303.7 562.04,-329.69 585,-350.83"/>
</g>
<!-- icd_provisioner_subcommand_wifi&#45;&gt;plumbum_cli -->
<g id="edge63" class="edge">
<title>icd_provisioner_subcommand_wifi&#45;&gt;plumbum_cli</title><style>.edge>path:hover{stroke-width:8}</style>
<path fill="none" stroke="black" d="M585,-352.83C598.3,-365.07 648.9,-467.93 672.61,-516.99"/>
<polygon fill="#339933" stroke="black" points="669.48,-518.55 676.97,-526.04 675.78,-515.51 669.48,-518.55"/>
</g>
</g>
</svg>
